<?xml version="1.0" standalone="no"?><!DOCTYPE svg PUBLIC "-//W3C//DTD SVG 1.1//EN" "http://www.w3.org/Graphics/SVG/1.1/DTD/svg11.dtd"><svg t="1508746823925" class="icon" style="" viewBox="0 0 1024 1024" version="1.1" xmlns="http://www.w3.org/2000/svg" p-id="14415" xmlns:xlink="http://www.w3.org/1999/xlink" width="48" height="48"><defs><style type="text/css"></style></defs><path d="M1024 512c0 282.76-229.24 512-512 512S0 794.76 0 512 229.24 0 512 0s512 229.222 512 512zM433.527 281.054c-54.8 0-107.11 47.804-107.11 75.554v81.596c0 30.703 13.875 88.234 46.285 114.227 10.103 8.09 15.462 20.719 14.319 33.604s-8.704 24.354-20.07 30.515l-124.81 67.687a32.77 32.77 0 0 1-2.679 1.348c-3.055 1.382-6.912 3.738-9.693 5.752v34.542h408.32s2.03-43.656 0.955-44.236L501.42 616.806c-11.4-6.229-18.893-17.749-20.002-30.703a38.772 38.772 0 0 1 14.609-33.62c33.348-26.232 42.752-84.037 42.752-114.296V356.59c0-28.416-49.408-75.537-105.25-75.537M822.34 549.547h-93.866v-95.71c0-14.131-11.47-25.6-25.6-25.6s-25.6 11.469-25.6 25.6v95.71h-93.867c-14.131 0-25.6 11.468-25.6 25.6s11.469 25.6 25.6 25.6h93.867v92.023c0 14.131 11.468 25.6 25.6 25.6s25.6-11.469 25.6-25.6v-92.023h93.866c14.131 0 25.6-11.47 25.6-25.6s-11.469-25.6-25.6-25.6z" p-id="14416" fill="#00BFFF"></path></svg>