<?xml version="1.0" standalone="no"?><!DOCTYPE svg PUBLIC "-//W3C//DTD SVG 1.1//EN" "http://www.w3.org/Graphics/SVG/1.1/DTD/svg11.dtd"><svg t="1510819598367" class="icon" style="" viewBox="0 0 1024 1024" version="1.1" xmlns="http://www.w3.org/2000/svg" p-id="1874" xmlns:xlink="http://www.w3.org/1999/xlink" width="16" height="16"><defs><style type="text/css"></style></defs><path d="M241.84967 337.92C247.709187 338.908454 253.648879 339.556752 259.413521 340.940055 293.901152 349.217192 323.749275 365.834162 349.007332 390.761617 376.666655 418.058162 370.522514 458.181934 350.034919 478.958149 344.43731 484.635424 338.347956 489.868496 332.178426 494.936158 304.767648 517.453173 284.536615 544.991161 273.238505 578.736003 265.176826 602.813734 249.184422 621.050115 230.053134 636.687968 206.063191 656.298314 180.44167 673.387501 150.339657 682.518363 145.720194 683.919007 140.972448 684.903459 136.284835 686.08L122.922198 686.08C114.050743 684.465925 105.238084 682.304932 96.297143 681.352494 77.308835 679.331566 58.261732 678.018962 40.073846 686.08L30.72 686.08 30.72 648.729502C31.142259 645.458665 31.401495 642.158482 32.016176 638.923662 34.694048 624.823849 36.326963 610.391884 40.517486 596.746946 45.472352 580.616867 55.606576 567.35077 73.1584 563.73711 86.15891 561.058545 95.220114 554.118022 103.072 544.356203 120.312475 522.922353 132.938831 498.720564 145.088141 474.274663 158.207578 447.878533 170.81389 421.266302 178.294295 392.531764 181.445204 380.423533 181.743191 369.465164 171.965749 359.964798 169.66604 357.730437 167.803288 354.551643 166.948079 351.474229 166.066145 348.294101 165.514268 344.026806 167.004202 341.54033 167.990365 339.894241 173.207138 339.439365 175.879666 340.351784 193.380712 346.327864 210.308501 343.825381 227.150769 337.92L241.84967 337.92Z" p-id="1875" fill="#d4237a"></path><path d="M1002.857615 550.069495C1000.455014 591.840692 986.297298 628.601585 961.581763 661.189895 949.693025 676.865099 936.346424 679.583681 917.825807 672.789893 906.072033 668.478578 895.607752 662.140999 888.466755 651.790909 871.893079 627.770537 849.626916 609.747588 826.715336 592.422292 801.009633 572.984026 774.864297 554.122024 749.20937 534.618395 743.455416 530.24305 738.314808 524.703171 734.013379 518.873826 728.41577 511.287673 731.781816 504.075025 741.255926 503.622817 749.383081 503.234638 757.669253 504.243102 765.758996 505.463663 781.103309 507.779394 785.424788 503.530775 780.543416 488.515874 768.186988 450.497069 751.80439 414.16037 732.882898 378.962862 729.960489 373.52703 726.471506 367.380205 730.778281 362.315211 735.552753 356.700631 742.899533 359.169766 747.93858 362.699388 769.12638 377.543543 793.696261 378.29989 817.98018 380.676983 860.365133 384.825556 901.441879 393.437514 937.5985 417.589946 973.151135 441.339527 992.599117 475.301801 999.333888 516.899585 1001.137843 528.040705 1001.753861 539.373913 1002.857615 550.069495" p-id="1876" fill="#d4237a"></path></svg>