<?xml version="1.0" standalone="no"?><!DOCTYPE svg PUBLIC "-//W3C//DTD SVG 1.1//EN" "http://www.w3.org/Graphics/SVG/1.1/DTD/svg11.dtd"><svg t="1508828745932" class="icon" style="" viewBox="0 0 1024 1024" version="1.1" xmlns="http://www.w3.org/2000/svg" p-id="5898" xmlns:xlink="http://www.w3.org/1999/xlink" width="15" height="15"><defs><style type="text/css"></style></defs><path d="M106.841 188.371a60.92 60.92 0 0 0 6.304 7.393l7.827 8.263-3.261-3.044c13.263 12.393 127.191 108.274 136.539 116.102l13.697 11.741c124.362 106.97 154.802 136.756 154.802 180.24 0 25.437-0.219 47.397-0.654 81.532-1.523 105.669 0 135.236 7.61 149.585 3.044 6.304 44.351 46.093 100.666 94.359l15.87 13.479c30.221 25.655 52.833 50.223 52.833 47.615l-0.219-44.138c0-48.918-0.219-85.881-0.219-122.843 0-129.802 0.87-205.244 3.044-226.549 1.305-12.393 4.782-24.133 9.782-35.441 14.564-32.396 37.83-55.226 97.622-103.71 0.219-0.219 61.094-48.918 82.835-66.745 38.483-31.526 76.532-63.703 113.926-96.533l-3.914 3.914c17.829-18.698 23.916-32.396 23.482-49.79 0.433-31.091-29.786-58.703-53.05-58.703h-710.96c-38.266 0-65.879 24.786-65.879 59.573 0 13.915 3.914 23.916 11.308 33.701zM872.373 36.177c46.309 0 113.276 45.442 112.407 118.927 0.87 33.049-12.611 61.314-39.571 89.577-200.243 175.891-278.295 211.111-284.384 264.598-4.566 42.178-1.741 437.884-2.389 443.319 0.219 7.827-1.523 15.438-5.437 20.873-17.393 16.96-35.003 11.308-43.703 3.914-66.966-54.353-216.115-175.678-233.073-211.332-20.003-38.266-12.611-117.623-12.611-256.553 0-31.311-235.03-217.855-285.907-264.598-12.393-13.049-41.527-40.005-41.527-89.577 0-72.399 59.358-118.927 125.233-118.927l710.96-0.219zM744.529 510.368h213.724c14.564 0 26.526 12.393 26.526 26.741 0 14.783-11.958 26.526-26.526 26.741H744.529c-14.564-0.219-26.526-12.175-26.526-26.741 0-14.783 11.741-26.741 26.526-26.741z m-26.525 145.236c0-14.564 11.958-26.526 26.526-26.741h213.724c14.564 0 26.526 12.393 26.526 26.741 0 14.564-11.958 26.526-26.526 26.741H744.53c-14.783-0.219-26.526-12.175-26.526-26.741z m0 118.496c0-14.564 11.958-26.526 26.526-26.741h213.724c14.564 0 26.526 12.393 26.526 26.741 0 14.564-11.958 26.526-26.526 26.741H744.53c-14.783-0.219-26.526-12.175-26.526-26.741z" fill="#bfbfbf" p-id="5899"></path></svg>