<?xml version="1.0" standalone="no"?><!DOCTYPE svg PUBLIC "-//W3C//DTD SVG 1.1//EN" "http://www.w3.org/Graphics/SVG/1.1/DTD/svg11.dtd"><svg t="1508816426604" class="icon" style="" viewBox="0 0 1024 1024" version="1.1" xmlns="http://www.w3.org/2000/svg" p-id="6865" xmlns:xlink="http://www.w3.org/1999/xlink" width="25" height="25"><defs><style type="text/css"></style></defs><path d="M837.874417 501.346359c-54.452169-54.450123-126.84699-84.437088-203.848734-84.437087-77.007885 0-149.404752 29.986965-203.852828 84.437087-54.448076 54.4491-84.435041 126.844943-84.435041 203.850781 0 77.006861 29.987988 149.401682 84.438111 203.851805s126.844943 84.438111 203.849758 84.438111c48.126091 0 95.785553-12.116969 137.829111-35.041074a25.405623 25.405623 0 0 0 4.212952-2.358721c4.6366-3.212158 8.118911-7.969509 9.801227-13.401218a25.7515 25.7515 0 0 0 1.153266-7.649214c0-14.052041-11.234879-25.485441-25.047466-25.485441a24.699542 24.699542 0 0 0-12.586666 3.461845 24.170492 24.170492 0 0 0-2.047636 1.345648c-34.654264 18.228153-73.835635 27.863604-113.316835 27.863604-132.889613 0-241.006006-106.584504-241.006006-237.597373 0-131.009799 108.113323-237.594303 241.006006-237.594303 132.893706 0 241.010099 106.582457 241.010099 237.594303 0 38.421055-9.018398 75.092255-26.806529 109.00053a23.826662 23.826662 0 0 0-2.248204 3.77907c-1.635243 3.381004-2.463098 7.028067-2.463098 10.842952 0 13.58746 10.837836 24.642237 24.158213 24.642237a23.931039 23.931039 0 0 0 15.2094-5.491061c2.26867-1.871627 4.177136-4.14132 5.697769-6.789637l0.757246-1.446955c21.573341-41.022299 32.976042-87.345324 32.976043-133.967154 0.001023-77.001745-29.987988-149.397588-84.440158-203.848735z" p-id="6866" fill="#13227a"></path><path d="M729.265814 838.796928a22.759353 22.759353 0 0 0 15.211446 5.822612c12.568247 0 22.793122-10.224876 22.793123-22.793122 0-6.473435-2.675946-12.494569-7.408737-16.812921l0.057305-0.040932-66.131163-53.670364-40.62628-33.222659V558.799886l-0.034792-1.53496h-0.113587c-1.25048-11.484565-10.929934-20.279882-22.648836-20.279882-11.717879 0-21.395286 8.797363-22.642696 20.279882h-0.143263v172.990937l0.001023 0.348947 0.12689 0.268106a26.051329 26.051329 0 0 0 1.788739 6.744611 26.189476 26.189476 0 0 0 5.656837 8.490372l4.103458 3.347234-0.026606 0.036839 110.037139 89.304956zM678.096411 289.186332l0.001023 90.567715c14.115486 1.713015 35.750225 5.362124 56.603159 14.912641V289.187355c0-45.64662-33.706683-90.565668-79.245855-90.565669h-45.282323v56.602136h33.961486c22.783913 0 33.962509 11.123338 33.96251 33.96251zM553.569256 311.829028c18.727527 4.244674 33.961486-11.663644 33.961486-22.642696V164.6602c-6.368034-30.502711-33.961486-22.642696-33.961486-22.642696-10.94426 0-22.642696 11.663644-22.642696 22.642696V289.186332c0 21.569248 22.642696 22.642696 22.642696 22.642696zM338.47541 855.217922h-169.807431c-22.773679 0-33.961486-11.120268-33.961486-33.961486V289.186332c0-22.839171 11.187807-33.961486 33.961486-33.96251h33.961486v-56.602136H157.344073c-45.537126 0-79.243809 42.408879-79.243809 88.056522v537.332968c0 45.647643 33.706683 87.812975 79.243809 87.812975h215.093846c-11.378142-10.366092-13.002129-13.158694-33.962509-56.606229zM304.513924 198.620663h203.774033v56.602136H304.513924z" p-id="6867" fill="#13227a"></path><path d="M247.910765 311.829028c16.606213 4.244674 33.961486-11.663644 33.961486-22.642696V164.6602c-9.441023-27.838022-22.641673-22.642696-22.641673-22.642696-10.94426 0-32.546254-0.36225-33.961486 22.642696V289.186332c0.001023 17.689894 22.641673 22.642696 22.641673 22.642696z" p-id="6868" fill="#13227a"></path></svg>