<?xml version="1.0" standalone="no"?><!DOCTYPE svg PUBLIC "-//W3C//DTD SVG 1.1//EN" "http://www.w3.org/Graphics/SVG/1.1/DTD/svg11.dtd"><svg t="1508745695686" class="icon" style="" viewBox="0 0 1024 1024" version="1.1" xmlns="http://www.w3.org/2000/svg" p-id="12318" xmlns:xlink="http://www.w3.org/1999/xlink" width="28" height="28"><defs><style type="text/css"></style></defs><path d="M46.324 523.539c-18.434 0-33.371 16.351-33.371 36.527v404.17c0 20.174 14.938 36.522 33.371 36.522 18.402 0 33.348-16.346 33.348-36.522v-404.17c0.002-20.176-14.945-36.527-33.348-36.527zM356.852 456.992c-18.427 0-33.372 16.129-33.372 36.007v471.742c0 19.88 14.946 36.007 33.372 36.007 18.409 0 33.346-16.127 33.346-36.007v-471.74c0-19.878-14.937-36.009-33.346-36.009zM667.377 390.769c-18.581 0-33.63 15.234-33.63 34.01v541.949c0 18.788 15.049 34.01 33.63 34.01 18.56 0 33.61-15.222 33.61-34.01v-541.95c-0.002-18.781-15.05-34.01-33.61-34.01zM978.026 253.66c-18.433 0-33.352 16.02-33.352 35.758v671.919c0 19.737 14.918 35.755 33.352 35.755 18.428 0 33.346-16.018 33.346-35.755V289.42c0.001-19.74-14.911-35.76-33.346-35.76zM1019.952 48.127c-5.89-9.137-15.919-14.59-26.2-14.413l0.942-1.093h-192.39c-14.936 0-20.461 19.617-7.719 27.411l72.101 44.109c-13.84 8.129-27.681 16.258-41.522 24.385l-132.175 77.63c-38.077 22.362-76.153 44.725-114.233 67.087-13.32 7.824-26.915 15.349-40.238 23.253-16.409-11.788-32.815-23.576-49.224-35.363L389.182 189.21l-23.008-16.53c-10.472-7.521-26.813-3.908-35.45 4.575-18.278 17.954-36.556 35.909-54.835 53.862-29.176 28.656-58.351 57.315-87.527 85.973l-2.589 2.544a2620599.21 2620599.21 0 0 0-121.702-87.457c-6.513-4.683-13.026-9.362-19.54-14.044-12.469-8.96-33.118-2.576-40.022 10.495-7.99 15.123-2.813 30.46 10.494 40.022 46.494 33.41 92.988 66.823 139.482 100.236l19.542 14.043c10.469 7.524 26.813 3.908 35.447-4.575 18.278-17.954 36.556-35.908 54.837-53.862l87.525-85.973 2.592-2.546 45.012 32.338a2500165.474 2500165.474 0 0 0 123.123 88.453c8.263 5.937 21.158 4.915 29.528 0 15.169-8.907 30.335-17.815 45.501-26.723 36.423-21.39 72.843-42.78 109.266-64.172 44.057-25.876 88.117-51.751 132.175-77.628 38.078-22.362 76.155-44.726 114.233-67.089 18.444-10.832 37.194-21.272 55.384-32.528 0.265-0.164 0.54-0.317 0.81-0.476 13.194-7.749 19.065-26.723 10.492-40.02z" p-id="12319" fill="#1296db"></path></svg>