<?xml version="1.0" standalone="no"?><!DOCTYPE svg PUBLIC "-//W3C//DTD SVG 1.1//EN" "http://www.w3.org/Graphics/SVG/1.1/DTD/svg11.dtd"><svg t="1508745015330" class="icon" style="" viewBox="0 0 1024 1024" version="1.1" xmlns="http://www.w3.org/2000/svg" p-id="10029" xmlns:xlink="http://www.w3.org/1999/xlink" width="28" height="28"><defs><style type="text/css"></style></defs><path d="M648.384 684.928c1.664 0.64 3.392 0.896 5.12 0.96 0.192 0 0.384 0.128 0.576 0.128 0.384 0 0.64-0.192 0.96-0.192 1.28-0.064 2.496-0.32 3.712-0.704 0.512-0.128 0.96-0.32 1.408-0.512 1.6-0.704 3.136-1.6 4.352-2.944l83.776-83.648 83.84 83.648c1.28 1.28 2.752 2.176 4.352 2.88 0.512 0.192 0.96 0.384 1.472 0.512 1.216 0.384 2.432 0.64 3.712 0.704 0.32 0 0.64 0.192 0.96 0.192 0.192 0 0.384-0.128 0.576-0.128 1.728-0.064 3.456-0.32 5.12-0.96 1.856-0.768 3.456-1.92 4.8-3.264 2.752-2.688 4.352-6.464 4.352-10.496L857.472 243.328 857.472 172.224 857.472 122.304c0-3.968-1.536-7.744-4.352-10.496-2.752-2.752-6.528-4.288-10.496-4.288L654.08 107.52l0 0c-1.408 0-2.752 0.448-4.032 0.832-0.576 0.128-1.216 0.128-1.728 0.32-5.312 2.24-9.088 7.552-9.088 13.696l0 49.536 0 70.976 0 428.416C639.232 677.184 642.88 682.56 648.384 684.928z" p-id="10030" fill="#1296db"></path><path d="M142.4 416.256c0 7.68 6.272 14.016 14.016 14.016l236.864 0c7.744 0 14.016-6.336 14.016-14.016 0-7.808-6.272-14.08-14.016-14.08L156.416 402.176C148.672 402.176 142.4 408.448 142.4 416.256z" p-id="10031" fill="#1296db"></path><path d="M393.28 517.696 156.416 517.696c-7.744 0-14.016 6.272-14.016 14.016s6.272 14.08 14.016 14.08l236.864 0c7.744 0 14.016-6.336 14.016-14.08S401.088 517.696 393.28 517.696z" p-id="10032" fill="#1296db"></path><path d="M393.28 633.152 156.416 633.152c-7.744 0-14.016 6.272-14.016 14.08 0 7.744 6.272 14.016 14.016 14.016l236.864 0c7.744 0 14.016-6.272 14.016-14.016C407.36 639.488 401.088 633.152 393.28 633.152z" p-id="10033" fill="#1296db"></path><path d="M899.584 180.096l0 72.448c24.896 6.976 40.832 14.592 46.784 20.48l0 567.552c-124.8-17.024-274.56-17.024-399.296 0L547.072 272.96C553.28 266.88 570.304 258.752 597.184 251.584L597.184 179.328C563.328 186.944 533.44 197.632 512 212.096 461.312 177.92 364.224 164.608 277.248 164.608c-124.416 0-269.76 27.2-269.76 103.936l0 612.864c0 10.432 4.544 20.16 12.48 26.88 7.936 6.656 18.432 9.408 28.608 7.68 68.992-11.904 148.096-18.24 228.736-18.24 80.64 0 159.744 6.336 228.736 18.24 0.96 0.128 1.92 0.128 2.88 0.256 0.704 0.064 1.408 0.128 2.112 0.192 0.32 0 0.64 0.128 0.96 0.128 1.856 0 3.776-0.192 5.568-0.512 0.128 0 0.256 0 0.384 0 68.992-11.904 148.096-18.24 228.736-18.24 80.64 0 159.744 6.336 228.736 18.24 1.984 0.384 3.968 0.576 5.952 0.576 8.192 0 16.192-2.88 22.592-8.256 7.936-6.72 12.48-16.448 12.48-26.88L1016.448 268.544C1016.512 223.424 966.272 195.456 899.584 180.096zM476.928 840.512C414.528 832 346.368 827.52 277.248 827.52c-69.056 0-137.216 4.48-199.616 12.992L77.632 272.96C91.84 259.072 161.92 234.752 277.248 234.752c115.392 0 185.472 24.32 199.68 38.208L476.928 840.512z" p-id="10034" fill="#1296db"></path></svg>