<?xml version="1.0" standalone="no"?><!DOCTYPE svg PUBLIC "-//W3C//DTD SVG 1.1//EN" "http://www.w3.org/Graphics/SVG/1.1/DTD/svg11.dtd"><svg t="1508745650387" class="icon" style="" viewBox="0 0 1024 1024" version="1.1" xmlns="http://www.w3.org/2000/svg" p-id="11447" xmlns:xlink="http://www.w3.org/1999/xlink" width="28" height="28"><defs><style type="text/css"></style></defs><path d="M826.305213 576.852475H197.596492c-38.860015 0-71.286253-22.518221-74.503142-51.856245L113.442684 437.882885c-0.900729-7.849208 2.702186-15.698417 9.779342-21.488816s17.113848-9.135964 27.536567-9.135964h722.513194c10.422719 0 20.459412 3.345564 27.536567 9.135964 7.077155 5.7904 10.551395 13.639608 9.779342 21.488816l-9.650666 87.113345c-3.345564 29.209349-35.643126 51.856245-74.631817 51.856245M817.169249 600.271425H200.298678l74.889169 423.728575h467.220909L817.169249 600.271425M508.733964 190.568485c25.220407 0 49.540085-10.036693 67.297311-27.922594 17.885901-17.885901 27.922594-42.076904 27.922593-67.297311 0-38.473988-23.161598-73.216386-58.804725-88.014074C509.634693-7.463182 468.715869 0.643378 441.436653 27.922594c-27.279216 27.279216-35.385775 68.19804-20.588088 103.841166 14.669012 35.514451 49.41141 58.804725 87.885399 58.804725M725.294909 374.317165l-20.845439-93.161096c-5.275697-23.676301-24.705705-41.690877-48.639357-45.165116l-84.668509-12.481529-41.948228 96.249309-5.404373-47.481276c-0.128676-1.544107-1.415431-2.573511-2.959538-2.702187H496.767138c-1.544107 0-2.830862 1.15808-2.959538 2.702187l-4.88967 48.639356-42.462931-97.407389-84.66851 12.481529c-24.062327 3.47424-43.363659 21.488816-48.639356 45.165116l-20.845439 93.161096h432.993215" p-id="11448" fill="#1296db"></path><path d="M479.524615 227.241015c0 8.749937 7.334506 20.459412 11.709474 24.963056 4.374969 4.374969 11.709475 4.374969 17.62855 4.374969s13.253581 0 17.62855-4.374969c4.374969-4.374969 11.709475-16.084443 11.709475-24.963056 0-10.294044-17.885901-11.709475-29.338025-11.709474-11.452124-0.128676-29.4667 1.415431-29.338024 11.709474" p-id="11449" fill="#1296db"></path></svg>