<?xml version="1.0" standalone="no"?><!DOCTYPE svg PUBLIC "-//W3C//DTD SVG 1.1//EN" "http://www.w3.org/Graphics/SVG/1.1/DTD/svg11.dtd"><svg t="1505294602540" class="icon" style="" viewBox="0 0 1024 1024" version="1.1" xmlns="http://www.w3.org/2000/svg" p-id="2867" xmlns:xlink="http://www.w3.org/1999/xlink" width="200" height="200"><defs><style type="text/css"></style></defs><path d="M477.442 289.85c-2.384 0-5.959 0-8.343-1.191-3.574-1.191-81.036-32.174-81.036-119.171 0-83.421 76.269-117.979 79.843-119.171 5.959-2.384 11.917-2.384 17.876 0 3.574 1.191 81.036 32.174 81.036 119.171 0 82.228-76.269 117.979-79.843 119.171-2.384 0-5.959 1.191-9.535 1.191zM478.634 97.987c-14.299 9.535-41.71 32.174-41.71 70.311 0 40.518 26.217 61.969 41.71 70.311 14.299-9.535 41.71-32.174 41.71-70.311-1.191-40.518-27.41-61.969-41.71-70.311zM67.497 778.447c-13.107 0-23.833-10.724-23.833-23.833v-65.541c0-13.107 10.724-23.833 23.833-23.833s23.833 10.724 23.833 23.833v65.541c0 13.107-10.724 23.833-23.833 23.833z" p-id="2868" fill="#d81e06"></path><path d="M105.63 807.046c-13.107 0-23.833-10.724-23.833-23.833v-122.745c0-13.107 10.724-23.833 23.833-23.833s23.833 10.724 23.833 23.833v121.554c0 14.299-10.724 25.026-23.833 25.026zM305.838 778.447c-13.107 0-23.833-10.724-23.833-23.833v-65.541c0-13.107 10.724-23.833 23.833-23.833s23.833 10.724 23.833 23.833v65.541c0 13.107-10.724 23.833-23.833 23.833z" p-id="2869" fill="#d81e06"></path><path d="M267.7 807.046c-13.107 0-23.833-10.724-23.833-23.833v-122.745c0-13.107 10.724-23.833 23.833-23.833s23.833 10.724 23.833 23.833v121.554c0 14.299-10.724 25.026-23.833 25.026z" p-id="2870" fill="#d81e06"></path><path d="M282.002 745.078h-190.672c-13.107 0-23.833-10.724-23.833-23.833s10.724-23.833 23.833-23.833h190.672c13.107 0 23.833 10.724 23.833 23.833s-10.724 23.833-23.833 23.833zM902.878 252.907h-65.541c-13.107 0-23.833-10.724-23.833-23.833s10.724-23.833 23.833-23.833h65.541c13.107 0 23.833 10.724 23.833 23.833s-10.724 23.833-23.833 23.833z" p-id="2871" fill="#d81e06"></path><path d="M931.478 291.043h-122.745c-13.107 0-23.833-10.724-23.833-23.833s10.724-23.833 23.833-23.833h121.554c13.107 0 23.833 10.724 23.833 23.833s-9.535 23.833-22.643 23.833zM902.878 490.055h-65.541c-13.107 0-23.833-10.724-23.833-23.833s10.724-23.833 23.833-23.833h65.541c13.107 0 23.833 10.724 23.833 23.833s-10.724 23.833-23.833 23.833z" p-id="2872" fill="#d81e06"></path><path d="M931.478 451.92h-122.745c-13.107 0-23.833-10.724-23.833-23.833s10.724-23.833 23.833-23.833h121.554c13.107 0 23.833 10.724 23.833 23.833s-9.535 23.833-22.643 23.833z" p-id="2873" fill="#d81e06"></path><path d="M870.703 467.412c-13.107 0-23.833-10.724-23.833-23.833v-190.672c0-13.107 10.724-23.833 23.833-23.833s23.833 10.724 23.833 23.833v190.672c0 13.107-10.724 23.833-23.833 23.833zM195.007 643.783c-13.107 0-23.833-10.724-23.833-23.833 0-3.574 1.191-100.102 82.228-182.331 73.885-73.885 187.095-110.828 337.251-110.828h194.246c13.107 0 23.833 10.724 23.833 23.833s-10.724 23.833-23.833 23.833h-193.056c-137.046 0-239.533 32.174-303.883 97.719-67.924 67.924-69.118 147.77-69.118 147.77 0 13.107-10.724 23.833-23.833 23.833zM643.087 936.944h-17.876v-145.388c0-13.107-10.724-25.026-25.026-25.026h-166.841c-13.107 0-25.026 10.724-25.026 25.026v145.388h-17.876c-13.107 0-25.026 10.724-25.026 25.026 0 13.107 10.724 25.026 25.026 25.026h252.64c13.107 0 25.026-10.724 25.026-25.026s-11.917-25.026-25.026-25.026zM576.353 936.944h-119.171v-120.361h119.171v120.361z" p-id="2874" fill="#d81e06"></path><path d="M808.733 986.993h-69.118c-11.917 0-22.643-8.343-23.833-20.259-33.366-258.597-35.75-265.749-76.269-284.816-17.876-8.343-33.366-7.15-52.434-5.959-28.603 1.191-63.162 3.574-104.871-28.603-69.118-52.434-39.326-250.256-33.366-288.391 2.384-13.107 14.299-21.451 27.41-19.068 13.107 2.384 21.451 14.299 19.068 27.41-14.299 84.611-19.068 216.887 15.491 243.108 28.603 21.451 47.667 20.259 73.885 19.068 21.451-1.191 46.476-2.384 75.077 10.724 64.353 29.791 69.118 51.244 101.293 301.501h47.667c13.107 0 23.833 10.724 23.833 23.833s-9.535 21.451-23.833 21.451z" p-id="2875" fill="#d81e06"></path></svg>