<?xml version="1.0" standalone="no"?><!DOCTYPE svg PUBLIC "-//W3C//DTD SVG 1.1//EN" "http://www.w3.org/Graphics/SVG/1.1/DTD/svg11.dtd"><svg t="1507979746712" class="icon" style="" viewBox="0 0 1024 1024" version="1.1" xmlns="http://www.w3.org/2000/svg" p-id="1805" xmlns:xlink="http://www.w3.org/1999/xlink" width="20" height="20"><defs><style type="text/css"></style></defs><path d="M512.512 902.144c27.648 0 48.128-23.552 48.128-49.152 0-27.648-20.48-48.128-48.128-48.128s-49.152 20.48-49.152 48.128c0 25.6 20.48 49.152 49.152 49.152zM354.816 89.088l314.368 0c51.2 0 86.016 34.816 86.016 82.944l0 686.08c0 43.008-34.816 76.8-76.8 76.8l-332.8 0c-41.984 0-76.8-33.792-76.8-76.8l0-686.08c0-48.128 34.816-82.944 86.016-82.944zM448 144.384c-9.216 0-15.36 7.168-15.36 16.384s6.144 16.384 15.36 16.384l128 0c9.216 0 15.36-7.168 15.36-16.384s-6.144-16.384-15.36-16.384l-128 0zM709.12 765.952l0-507.904-394.24 0 0 507.904 394.24 0z" p-id="1806" fill="#ff9900"></path></svg>