<?xml version="1.0" standalone="no"?><!DOCTYPE svg PUBLIC "-//W3C//DTD SVG 1.1//EN" "http://www.w3.org/Graphics/SVG/1.1/DTD/svg11.dtd"><svg t="1508387657363" class="icon" style="" viewBox="0 0 1024 1024" version="1.1" xmlns="http://www.w3.org/2000/svg" p-id="2816" xmlns:xlink="http://www.w3.org/1999/xlink" width="28" height="28"><defs><style type="text/css"></style></defs><path d="M683.114496 340.344832a62.234624 62.234624 0 0 1 19.890176-3.268608c26.109952 0 50.526208 16.498688 59.301888 42.575872 10.995712 32.669696-6.637568 68.192256-39.305216 79.194112-32.65536 10.991616-68.173824-6.641664-79.169536-39.305216-5.326848-15.826944-4.173824-32.77824 3.24608-47.736832 7.417856-14.962688 20.217856-26.136576 36.036608-31.459328z m20.041728 165.31456c11.188224 0 22.562816-1.787904 33.738752-5.545984 55.422976-18.659328 85.338112-78.927872 66.68288-134.352896-18.655232-55.41888-78.927872-85.334016-134.352896-66.68288-26.845184 9.037824-48.566272 27.992064-61.155328 53.37088-12.589056 25.376768-14.542848 54.136832-5.505024 80.982016 14.893056 44.244992 56.297472 72.228864 100.591616 72.228864zM322.666496 450.936832a62.234624 62.234624 0 0 1 19.890176-3.268608c26.109952 0 50.526208 16.49664 59.301888 42.573824 10.995712 32.669696-6.637568 68.192256-39.305216 79.194112-32.653312 10.991616-68.173824-6.641664-79.169536-39.305216-5.326848-15.826944-4.173824-32.77824 3.24608-47.736832 7.417856-14.96064 20.217856-26.134528 36.036608-31.45728z m20.041728 165.31456c11.188224 0 22.562816-1.787904 33.738752-5.545984 55.422976-18.659328 85.338112-78.927872 66.68288-134.352896-18.655232-55.41888-78.927872-85.334016-134.352896-66.68288-26.845184 9.037824-48.566272 27.992064-61.155328 53.37088-12.589056 25.376768-14.542848 54.136832-5.505024 80.982016 14.893056 44.244992 56.297472 72.228864 100.591616 72.228864zM499.173376 280.63744c-15.824896 5.3248-32.772096 4.173824-47.722496-3.244032-14.9504-7.417856-26.120192-20.217856-31.444992-36.03456-10.991616-32.671744 6.639616-68.1984 39.303168-79.19616a62.572544 62.572544 0 0 1 19.98848-3.295232c9.508864 0 18.962432 2.197504 27.731968 6.551552 14.952448 7.424 26.12224 20.226048 31.449088 36.050944 5.326848 15.824896 4.173824 32.772096-3.244032 47.720448-7.421952 14.954496-20.228096 26.12224-36.061184 31.44704z m75.063296-12.085248c12.591104-25.368576 14.55104-54.126592 5.511168-80.973824-9.035776-26.847232-27.983872-48.566272-53.354496-61.16352-25.37472-12.597248-54.130688-14.559232-80.97792-5.521408-55.416832 18.65728-85.331968 78.925824-66.68288 134.352896 9.035776 26.845184 27.987968 48.562176 53.358592 61.155328 14.872576 7.378944 30.906368 11.104256 47.038464 11.104256 11.38688 0 22.822912-1.855488 33.931264-5.595136 26.857472-9.035776 48.582656-27.987968 61.175808-53.358592zM44.541952 803.805184c0-25.194496 9.814016-48.896 27.631616-66.732032 17.819648-17.819648 41.506816-27.631616 66.709504-27.631616h126.304256a18.505728 18.505728 0 0 1 13.514752 5.789696 18.563072 18.563072 0 0 1 5.144576 13.805568c-0.47104 9.795584-9.35936 17.7664-19.816448 17.7664H189.63456c-12.023808 0-21.774336 9.746432-21.774336 21.774336 0 21.735424 8.46848 42.190848 23.861248 57.612288 15.386624 15.386624 35.848192 23.861248 57.612288 23.861248h153.669632c13.361152 0 24.721408 10.262528 25.32352 22.84544 0.309248 6.670336-2.045952 12.992512-6.63552 17.795072a23.846912 23.846912 0 0 1-17.403904 7.452672H138.881024c-52.017152 0.004096-94.339072-42.319872-94.339072-94.339072z m358.463488 2.701312h-153.669632a37.67296 37.67296 0 0 1-26.806272-11.091968 38.754304 38.754304 0 0 1-4.25984-5.064704h45.760512c33.906688 0 61.718528-26.013696 63.31392-59.246592 0.806912-17.195008-5.281792-33.509376-17.137664-45.934592-11.687936-12.24704-28.094464-19.27168-45.195264-19.27168H138.881024c-36.831232 0-71.458816 14.342144-97.507328 40.394752C15.337472 732.356608 0.997376 766.988288 0.997376 803.805184c0 76.029952 61.855744 137.885696 137.885696 137.885696h265.408512c18.3808 0 36.202496-7.626752 48.900096-20.926464 12.88192-13.494272 19.501056-31.209472 18.634752-49.90976-1.722368-36.083712-31.950848-64.34816-68.820992-64.34816zM885.116928 805.41696H619.708416c-6.63552 0-12.812288-2.643968-17.39776-7.450624a23.95136 23.95136 0 0 1-6.641664-17.793024c0.600064-12.613632 11.962368-22.874112 25.325568-22.874112h153.669632c21.766144 0 42.227712-8.472576 57.616384-23.861248 15.384576-15.386624 23.857152-35.846144 23.857152-57.612288 0-12.023808-9.74848-21.774336-21.774336-21.774336h-74.397696c-10.457088 0-19.345408-7.960576-19.8144-17.719296a18.601984 18.601984 0 0 1 5.142528-13.83424c3.561472-3.733504 8.364032-5.789696 13.692928-5.789696h126.128128c25.196544 0 48.887808 9.811968 66.709504 27.631616 17.821696 17.819648 27.631616 41.506816 27.631616 66.709504 0 52.037632-42.319872 94.367744-94.339072 94.367744z m97.501184-191.860736c-26.046464-26.042368-60.672-40.384512-97.499136-40.384512h-126.304256c-16.922624 0-33.337344 7.02464-45.021184 19.27168-11.855872 12.425216-17.944576 28.739584-17.135616 45.961216 1.59744 33.19808 29.407232 59.19744 63.309824 59.19744h45.768704a38.37952 38.37952 0 0 1-4.2496 5.046272 37.675008 37.675008 0 0 1-26.820608 11.108352H620.99456c-36.870144 0-67.096576 28.2624-68.818944 64.372736-0.864256 18.688 5.75488 36.411392 18.640896 49.907712 12.695552 13.297664 30.519296 20.924416 48.893952 20.924416h265.408512c76.029952 0 137.885696-61.868032 137.885696-137.906176-0.004096-36.83328-14.34624-71.460864-40.38656-97.499136z" p-id="2817" fill="#00FA9A"></path></svg>