<?xml version="1.0" standalone="no"?><!DOCTYPE svg PUBLIC "-//W3C//DTD SVG 1.1//EN" "http://www.w3.org/Graphics/SVG/1.1/DTD/svg11.dtd"><svg t="1508827626358" class="icon" style="" viewBox="0 0 1024 1024" version="1.1" xmlns="http://www.w3.org/2000/svg" p-id="4204" xmlns:xlink="http://www.w3.org/1999/xlink" width="45" height="45"><defs><style type="text/css"></style></defs><path d="M880.4 343.6c-40.8 28.4-158 108-158 108s-116.4-224.8-145.6-276c-38.8-59.6-95.6-43.2-118 0.4-26.8 57.6-145.6 276-145.6 276l-144-100.4S82.8 330.8 82.8 420v291.6c0 20.8 12.4 38.4 28 38.4s28-16.8 28-38.4v-292c0-6 0-12.4 1.2-18.4 2.8 1.2 5.2 2.8 7.6 4.8 0.4 0.4 0.8 0.8 1.6 0.8l158.8 128c12.8 10 28.8 5.6 37.2-11.2l134-265.6c-14 38 4.8-34 38.8-36.4h1.6c19.2 1.2 67.6 75.2 38.8 36.4l134 265.6c8.4 16.4 24.4 21.2 37.2 11.2 0 0 130-100.8 167.6-134 0.8 6.4 1.2 12.4 1.2 18.8V796H110.8c-15.2 0-28 16.8-28 38v151.2c0 20.8 12.4 38 28 38h814.4c15.2 0 28-16.8 28-38s-12.4-38.4-28-38.4H138.8v-75.2h786.4c15.2 0 28-16.8 28-38 0 0-0.4-360-0.4-431.2 0.4-59.2-27.6-84.4-72.4-58.8z" fill="#FF6C6D" p-id="4205"></path><path d="M108 214c50.8 0 91.6 41.2 91.6 92s-41.2 91.6-92 91.6C56.8 397.2 16 356.4 16 305.6s41.2-91.6 92-91.6z" fill="#FFCA27" p-id="4206"></path><path d="M108 260c25.2 0 45.6 20.8 45.6 46s-20.8 45.6-46 45.6-45.6-20.4-45.6-46C62 280.4 82.4 260 108 260z" fill="#FFEAA9" p-id="4207"></path><path d="M521.6 0c50.8 0 91.6 41.2 91.6 92s-41.2 91.6-92 91.6c-50.4 0-91.6-41.2-91.6-91.6 0-50.8 41.2-92 92-92z" fill="#FFCA27" p-id="4208"></path><path d="M521.6 46c25.2 0 46 20.8 45.6 46 0 25.2-20.8 46-46 45.6-25.2 0-45.6-20.4-45.6-46 0-25.2 20.8-45.6 46-45.6z" fill="#FFEAA9" p-id="4209"></path><path d="M920 198.8c50.8 0 91.6 41.2 91.6 92s-41.2 91.6-92 91.6c-50.4 0-91.6-41.2-91.6-91.6 0-51.2 41.2-92 92-92z" fill="#FFCA27" p-id="4210"></path><path d="M920 244.4c25.2 0 46 20.8 45.6 46 0 25.2-20.8 46-46 45.6-25.2 0-45.6-20.4-45.6-46 0-24.8 20.8-45.6 46-45.6z" fill="#FFEAA9" p-id="4211"></path></svg>