<?xml version="1.0" standalone="no"?><!DOCTYPE svg PUBLIC "-//W3C//DTD SVG 1.1//EN" "http://www.w3.org/Graphics/SVG/1.1/DTD/svg11.dtd"><svg t="1506077661075" class="icon" style="" viewBox="0 0 1024 1024" version="1.1" xmlns="http://www.w3.org/2000/svg" p-id="3901" xmlns:xlink="http://www.w3.org/1999/xlink" width="32" height="32"><defs><style type="text/css"></style></defs><path d="M684.15744 352.286208c11.162112 0 22.203904 0.855552 33.15712 2.127872-29.792256-144.602624-178.107392-252.039168-347.400704-252.039168-189.269504 0-344.308224 134.47168-344.308224 305.227264 0 98.566144 51.58144 179.506176 137.777664 242.284032l-34.437632 107.963904 120.363008-62.915584c43.068416 8.886272 77.625856 18.0224 120.605696 18.0224 10.804224 0 21.517824-0.554496 32.141312-1.426432-6.72512-23.995904-10.623488-49.127424-10.623488-75.203072C391.43168 479.533568 520.606208 352.286208 684.15744 352.286208zM499.027968 254.980608c25.92512 0 43.099648 17.777152 43.099648 44.785664 0 26.896896-17.174528 44.921856-43.099648 44.921856-25.806336 0-51.6992-18.02496-51.6992-44.921856C447.328768 272.75776 473.22112 254.980608 499.027968 254.980608zM258.059776 344.688128c-25.802752 0-51.847168-18.02496-51.847168-44.921856 0-27.008512 26.043904-44.785664 51.847168-44.785664 25.805312 0 42.980864 17.777152 42.980864 44.785664C301.04064 326.663168 283.865088 344.688128 258.059776 344.688128z" p-id="3902" fill="#ffffff"></path><path d="M998.405632 632.016384c0-143.48544-137.74848-260.44672-292.459008-260.44672-163.819008 0-292.845568 116.96128-292.845568 260.44672 0 143.735808 129.02656 260.445184 292.845568 260.445184 34.287104 0 68.871168-9.012736 103.308288-18.008576l94.438912 53.904384-25.893888-89.688576C946.912768 784.624128 998.405632 712.956928 998.405632 632.016384zM610.998784 587.108352c-17.14432 0-34.43712-17.777152-34.43712-35.910656 0-17.883136 17.293312-35.891712 34.43712-35.891712 26.04288 0 43.098624 18.008576 43.098624 35.891712C654.097408 569.3312 637.041664 587.108352 610.998784 587.108352zM800.387072 587.108352c-17.025536 0-34.200064-17.777152-34.200064-35.910656 0-17.883136 17.174528-35.891712 34.200064-35.891712 25.805312 0 43.094528 18.008576 43.094528 35.891712C843.4816 569.3312 826.192384 587.108352 800.387072 587.108352z" p-id="3903" fill="#ffffff"></path></svg>