<?xml version="1.0" standalone="no"?><!DOCTYPE svg PUBLIC "-//W3C//DTD SVG 1.1//EN" "http://www.w3.org/Graphics/SVG/1.1/DTD/svg11.dtd"><svg t="1508827361634" class="icon" style="" viewBox="0 0 1024 1024" version="1.1" xmlns="http://www.w3.org/2000/svg" p-id="2448" xmlns:xlink="http://www.w3.org/1999/xlink" width="45" height="45"><defs><style type="text/css"></style></defs><path d="M886.761336 432.848289 591.181387 432.848289 591.181387 137.260154c0-14.83794-12.029988-26.872021-26.870997-26.872021L134.376477 110.388133c-14.84101 0-26.870997 12.034081-26.870997 26.872021l0 752.389976c0 14.836917 12.029988 26.866904 26.870997 26.866904l429.934936 0c2.319835 0 4.571109-0.293689 6.718005-0.846274 2.146896 0.552585 4.39817 0.846274 6.718005 0.846274l309.015959 0c14.84101 0 26.870997-12.029988 26.870997-26.866904L913.63438 459.715193C913.632333 444.872137 901.602346 432.848289 886.761336 432.848289zM295.601438 432.843172l-80.612992 0 0-80.615039 80.612992 0L295.601438 432.843172zM295.601438 298.488185l-80.612992 0 0-80.609922 80.612992 0L295.601438 298.488185zM429.956426 298.488185l-80.612992 0 0-80.609922 80.612992 0L429.956426 298.488185zM671.794379 620.937085l-80.612992 0 0-80.608899 80.612992 0L671.794379 620.937085zM806.149367 620.937085l-80.612992 0 0-80.608899 80.612992 0L806.149367 620.937085zM779.278369 379.102201c0 0 66.059532-33.647331 99.087762-67.110467 32.654724-33.075303 32.281217-65.962318 32.281217-65.962318s0-4.477988 0-16.639982c0-36.741809-29.408797-66.537416-65.685002-66.537416-36.277228 0-65.685002 29.795607-65.685002 66.537416 0-36.741809-29.408797-66.537416-65.685002-66.537416-36.277228 0-65.685002 29.795607-65.685002 66.537416 0 12.161994 0 16.639982 0 16.639982s0.038886 33.313733 32.902364 66.594721C713.632253 345.875448 779.278369 379.102201 779.278369 379.102201z" p-id="2449" fill="#d81e06"></path></svg>