<?xml version="1.0" standalone="no"?><!DOCTYPE svg PUBLIC "-//W3C//DTD SVG 1.1//EN" "http://www.w3.org/Graphics/SVG/1.1/DTD/svg11.dtd"><svg t="1508747681753" class="icon" style="" viewBox="0 0 1024 1024" version="1.1" xmlns="http://www.w3.org/2000/svg" p-id="16690" xmlns:xlink="http://www.w3.org/1999/xlink" width="25" height="25"><defs><style type="text/css"></style></defs><path d="M709.68 735.018l-34.043 0.248c13.34 0 24.572 0.047 34.043-0.248z m0 0l50.14-0.365 0.379-61.214c-1.021 51.848-7.659 60.242-50.519 61.579z m-528.168 0.042c8.317 0.19 17.83 0.206 28.73 0.206l-28.73-0.206z m647.369-597.023c-8.326-0.191-17.853-0.207-28.771-0.207l28.771 0.207z m15.998 121.724c-6.83-42.34-40.383-74.716-81.11-75.926l-647.322 0.376c-42.181 4.299-75.373 42.126-76.677 88.651l0.329 470.983c4.003 46.731 40.25 83.312 84.375 83.312h45.022v0.245l82.216-0.161 0.26 124.771c-4.709 15.879-1.265 33.99 10.355 46.603 16.552 17.95 43.395 17.95 59.933 0l158.964-171.062 235.159-0.289v-0.106h45.022c42.429 0 77.58-33.821 83.777-77.97l-0.266-191.152c0.198-1.802 0.312-3.631 0.312-5.49l-0.349-292.785zM124.52 276.128l26.038-0.015-25.822 0.19-0.194 31.314-0.022-31.489z m635.786 379.99l-0.107 17.32c0.055-2.763 0.092-5.662 0.119-8.675l0.099 70.54-294.537 0.362a39.395 39.395 0 0 0-4.623 0.036c-14.336 0.424-26.887 8.561-34.258 20.728l-90.483 97.369-0.135-65.097c0.369-2.441 0.57-4.943 0.57-7.498 0-3.432-0.357-6.771-1.014-9.987-2.884-22.328-20.558-39.526-41.953-39.526a39.41 39.41 0 0 0-16.453 3.594l-152.689 0.3v-0.931l56.672 0.406c-44.276-1.016-54.418-7.055-56.702-42.618l-0.253-363.183c1.606-42.767 9.94-51.437 53.012-53.161l514.761-0.298 12.7 0.095a502.394 502.394 0 0 0-4.725-0.1l59.846-0.035 0.08 66.885-0.411-66.341-54.79-0.409c47.052 1.267 54.208 9.892 55.203 68.3l0.186 155.017a50.194 50.194 0 0 0-0.323 5.586l0.208 151.321z m211.271-536.654c-7.853-41.948-42.054-73.525-83.051-73.525h-45.021v-0.372l-506.445 0.356c-23.408 0-42.374 20.584-42.374 45.969 0 25.37 18.966 45.953 42.374 45.953l549.786-0.401 0.343 368.7c0 25.385 18.98 45.953 42.374 45.953 23.408 0 42.374-20.568 42.374-45.953l-0.36-386.68z m-142.696 18.573c47.498 1.091 55.687 7.968 57.049 50.962l-0.313-50.555-56.736-0.407z m57.301 91.684c0-16.298 0.097-29.692-0.252-40.722l0.252 40.722z" p-id="16691" fill="#1296db"></path></svg>