<?xml version="1.0" standalone="no"?><!DOCTYPE svg PUBLIC "-//W3C//DTD SVG 1.1//EN" "http://www.w3.org/Graphics/SVG/1.1/DTD/svg11.dtd"><svg t="1508125367401" class="icon" style="" viewBox="0 0 1024 1024" version="1.1" xmlns="http://www.w3.org/2000/svg" p-id="1026" xmlns:xlink="http://www.w3.org/1999/xlink" width="64" height="64"><defs><style type="text/css"></style></defs><path d="M512 512m-512 0a512 512 0 1 0 1024 0 512 512 0 1 0-1024 0Z" fill="#FF7123" p-id="1027"></path><path d="M518.826667 204.8c-102.4 0-187.733333 85.333333-187.733334 191.146667 0 105.813333 85.333333 191.146667 187.733334 191.146666s187.733333-85.333333 187.733333-191.146666c0-105.813333-85.333333-191.146667-187.733333-191.146667z m279.893333 614.4c-6.826667-98.986667-61.44-187.733333-136.533333-235.52-40.96 30.72-88.746667 51.2-143.36 51.2s-105.813333-20.48-143.36-51.2c-75.093333 47.786667-129.706667 136.533333-136.533334 235.52h559.786667z" fill="#FFFFFF" p-id="1028"></path></svg>