<?xml version="1.0" standalone="no"?><!DOCTYPE svg PUBLIC "-//W3C//DTD SVG 1.1//EN" "http://www.w3.org/Graphics/SVG/1.1/DTD/svg11.dtd"><svg t="1508417060656" class="icon" style="" viewBox="0 0 1024 1024" version="1.1" xmlns="http://www.w3.org/2000/svg" p-id="1344" xmlns:xlink="http://www.w3.org/1999/xlink" width="25" height="25"><defs><style type="text/css"></style></defs><path d="M671.3344 0.3072h210.4832s140.288 0 140.288 139.6224v209.408h-70.144v-209.408s0-69.7856-70.144-69.7856h-210.4832V0.3072z" p-id="1345" fill="#ffffff"></path><path d="M674.2016 70.144a35.0208 35.0208 0 0 1-35.072-34.9184c0-19.2512 15.7184-34.9184 35.072-34.9184h70.144c19.3536 0 35.072 15.6672 35.072 34.9184a35.0208 35.0208 0 0 1-35.072 34.9184h-70.144zM1022.1568 348.16a35.0208 35.0208 0 0 1-35.072 34.9184 35.0208 35.0208 0 0 1-35.1232-34.9184V278.3744c0-19.2512 15.7184-34.8672 35.1232-34.8672 19.3536 0 35.072 15.616 35.072 34.8672V348.16zM71.1168 346.5216a35.0208 35.0208 0 0 1-35.072 34.8672 35.0208 35.0208 0 0 1-35.1232-34.8672V139.9296S0.9216 0.3072 141.312 0.3072h210.5344V70.144H141.2608s-70.144 0-70.144 69.7856v206.592" p-id="1346" fill="#ffffff"></path><path d="M350.5664 0.3072c19.4048 0 35.1232 15.6672 35.1232 34.9184a35.0208 35.0208 0 0 1-35.1232 34.9184h-70.144a35.0208 35.0208 0 0 1-35.072-34.9184c0-19.2512 15.7184-34.9184 35.072-34.9184h70.144zM1023.8464 672.256v209.408s0 139.6224-140.3392 139.6224h-210.5344v-69.7856h210.5344s70.144 0 70.144-69.8368v-209.408h70.144z" p-id="1347" fill="#ffffff"></path><path d="M953.6512 675.1744c0-19.2512 15.7184-34.9184 35.1232-34.9184 19.3536 0 35.072 15.6672 35.072 34.9184v69.7856a35.0208 35.0208 0 0 1-35.072 34.9184 35.0208 35.0208 0 0 1-35.1232-34.9184v-69.7856zM674.2016 1021.2864a35.0208 35.0208 0 0 1-35.072-34.9184c0-19.2512 15.7184-34.8672 35.072-34.8672h70.144c19.3536 0 35.072 15.616 35.072 34.8672a35.0208 35.0208 0 0 1-35.072 34.9184h-70.144zM351.744 1022.976H141.312s-140.3904 0-140.3904-139.6224v-209.408h70.144v209.408s0 69.7856 70.1952 69.7856h210.5344v69.7856z" p-id="1348" fill="#ffffff"></path><path d="M348.8768 953.1392c19.4048 0 35.1232 15.6672 35.1232 34.9184a35.0208 35.0208 0 0 1-35.1232 34.8672h-70.144a35.0208 35.0208 0 0 1-35.072-34.8672c0-19.2512 15.7184-34.9184 35.072-34.9184h70.144zM0.9216 675.1744c0-19.2512 15.7184-34.9184 35.1232-34.9184 19.3536 0 35.072 15.6672 35.072 34.9184v69.7856a35.0208 35.0208 0 0 1-35.072 34.9184 35.0208 35.0208 0 0 1-35.1232-34.9184v-69.7856zM1023.8464 512.512c0 16.896-13.312 30.6176-29.696 30.6176H30.5664a30.1056 30.1056 0 0 1-29.6448-30.5664c0-16.896 13.312-30.5664 29.696-30.5664h963.584c16.384 0 29.6448 13.6704 29.6448 30.5664z" p-id="1349" fill="#ffffff"></path></svg>