<?xml version="1.0" standalone="no"?><!DOCTYPE svg PUBLIC "-//W3C//DTD SVG 1.1//EN" "http://www.w3.org/Graphics/SVG/1.1/DTD/svg11.dtd"><svg t="1508827746475" class="icon" style="" viewBox="0 0 1024 1024" version="1.1" xmlns="http://www.w3.org/2000/svg" p-id="4895" xmlns:xlink="http://www.w3.org/1999/xlink" width="48" height="48"><defs><style type="text/css"></style></defs><path d="M610.756 168.16h-23.674c-0.902 0-2.029-0.226-2.93-0.676-5.636-3.156-29.086-14.881-55.014 4.059-1.127 0.902-2.706 1.353-4.059 1.127-9.695-1.578-50.505-6.538-108.675 11.725-3.608 1.127-6.99 2.93-9.921 5.186-7.666 6.313-23.449 17.587-39.908 40.133 0 0 0 0 0 0.226-1.352 2.255-30.664 50.956-37.653 88.158 0 0-0.676 4.284-4.51 7.215 0 0-19.391 12.176-30.438 29.762-1.127 1.578-2.93 2.48-4.734 2.48-3.157 0-8.117 0-10.146 2.029 0 0-4.961 4.96 0.226 6.313 0 0 3.157-0.902 5.863-1.127 2.029-0.226 4.059 0.676 5.186 2.48 0.902 1.804 0.902 4.059-4.51 5.636 0 0-12.851 5.186-23.9 14.881-0.45 0.451-0.902 1.127-1.352 1.804-1.127 2.48-3.382 8.342 5.636 2.255 0 0 0.226 0 0.226-0.226 1.127-0.676 11.95-6.99 18.714-10.146 1.127-0.451 2.254-0.676 3.382-0.451 2.029 0.451 4.96 2.029 2.255 6.088l-10.146 11.048c-2.255 2.48 1.352 6.313 3.832 3.832 0 0 0.226-0.226 0.226-0.226l10.146-10.597c0.902-0.902 2.254-1.578 3.608-1.804 3.382-0.451 9.695-0.451 6.538 4.96l-7.215 13.077c-0.451 0.676-0.676 1.352-0.676 2.029-0.451 2.48-0.676 7.44 4.734 1.804l20.743-23.449c0.676-0.676 1.353-1.127 2.255-1.578 2.254-0.902 6.99-2.255 12.851-1.804 0 0 7.215 1.127 6.313 8.793l0.902 9.47c0 0 0.902 7.44 7.44 7.215 4.96-0.226 3.157-2.706 0.902-4.284-1.127-0.902-1.804-2.255-2.029-3.832-0.451-4.734-0.902-14.881 0.451-20.743 2.029-7.666-1.127-28.635-1.127-28.635 0 0 0 0 0 0 0 0-0.451-9.695 6.313-18.939l29.536-50.505c0.226-0.451 0.451-0.676 0.676-0.902l45.545-49.603c3.608-3.832 9.019-5.862 14.205-5.186 2.706 0.45 5.636 1.353 9.244 2.706 2.93 1.127 5.862 1.804 9.019 1.804l45.544 0.451c5.636 0 10.597 3.382 12.627 8.569 3.382 8.793 6.99 22.772 1.127 35.173 0 0-26.831 46.221-22.997 100.333 0.225 2.706 0 5.411-0.676 7.891l-11.725 43.741c-0.225 0.902-0.676 1.578-1.353 2.255-1.804 2.029-6.088 6.99-11.048 13.529-13.529 18.263-20.518 40.359-19.616 63.132 0.45 8.117 1.127 17.361 2.48 26.831 0.226 1.353 0 2.48-0.676 3.608-5.636 8.568-32.242 50.505-34.722 93.118 0 0 0 0 0 0 0 0-3.832 20.743-8.569 30.664-0.45 0.902-1.127 1.578-1.804 2.254-10.597 6.99-92.443 62.004-96.275 84.552-0.226 0.902-0.676 1.804-1.353 2.48-8.569 8.342-59.298 57.27-72.375 74.179-0.902 1.352-2.48 2.029-4.059 2.029-2.93 0-7.667 0.676-10.146 3.832-0.902 1.127-2.029 1.804-3.156 2.029-8.117 1.127-34.948 6.313-34.948 25.028 0 0-0.676 4.961 11.499 23.674 0 0 0 0 0.226 0.226 0.902 1.353 14.881 19.616 25.252 47.123 0 0 6.538 14.881 22.547 25.704 0 0 11.499 7.891 38.331 1.352 0.902-0.226 1.578-0.676 2.254-1.127 2.706-2.48 8.117-9.47-13.979-16.911-0.226-0.226-0.676-0.226-0.902-0.45-1.353-0.902-5.636-4.059-6.99-8.342-0.226-0.676-0.226-1.353-0.226-2.029l5.411-58.622c0-0.902 0.45-2.029 1.127-2.706 1.127-1.578 3.156-4.734 3.608-8.568 0.226-1.578 0.902-2.93 2.029-3.832 2.48-2.029 6.538-5.636 7.666-10.597 0.226-0.902 0.902-1.804 1.578-2.48l30.889-28.86c0.676-0.451 1.353-0.902 2.029-1.127 3.157-1.127 13.078-5.186 25.028-19.165 0-0.225 0.226-0.225 0.451-0.225 1.127 0 6.538-0.226 13.979-5.636 0.225-0.226 0.225-0.226 0.451-0.451 3.832-3.608 56.368-53.661 85.904-64.484 0 0 0 0 0 0 0 0 15.331-6.765 17.361-18.263 0.226-0.902 0.45-1.804 1.127-2.706 8.569-9.244 68.768-75.532 92.442-126.488 1.127-2.48 3.832-3.608 6.313-2.93 11.274 2.93 41.261 9.921 62.454 5.411 0.451 0 0.676-0.225 1.127 0l44.191 0.45c0.676 0 1.352 0.225 1.804 0.225 2.93 1.127 11.499 5.186 2.48 12.401 0 0-46.221 47.348-65.387 96.501 0 0.225 0 0.225-0.225 0.451l-20.969 43.291c-0.45 0.676-0.902 1.353-1.578 1.804-1.352 1.127-4.284 2.706-9.695 2.706-0.225 0-0.225 0-0.45 0l-4.734-0.451c-2.93-0.226-6.088 0.451-8.342 2.255 0 0 0 0 0 0l-23.449 39.232c-0.226 0.45-0.451 0.676-0.902 1.127-2.029 2.029-11.048 12.627 4.96 22.547 0 0 10.823 6.088 26.154 22.998 0 0 30.438 32.242 43.065 37.653 0 0 13.303 9.695 38.331 4.059 0.451 0 0.902-0.226 1.352-0.45 3.157-1.804 15.557-9.921-1.352-17.361 0 0-16.009-4.284-20.743-23.224l-11.499-36.527c-0.225-0.45-0.225-0.902-0.225-1.578l-0.45-12.176c0-1.353 0.45-2.706 1.127-3.608 2.706-3.156 7.891-11.273 2.93-20.518-1.127-1.804-0.676-4.284 0.45-5.863 11.274-15.557 61.552-83.198 91.314-108.225 0 0 15.331-13.979 23.224-20.291 0 0 41.261-33.594 15.782-68.543-0.45-0.676-0.902-1.127-1.578-1.578l-72.827-45.544c-0.451-0.225-0.676-0.45-1.127-0.902-3.832-4.059-31.114-31.114-68.543-31.34-0.902 0-1.578-0.226-2.48-0.451l-7.891-3.832c-2.48-1.353-3.832-4.284-2.93-6.99l21.194-58.622c0.676-1.804 2.255-3.156 4.284-3.608 0.676 0 1.127-0.226 1.804-0.451 2.48-0.902 5.411 0.451 6.538 2.706 5.186 9.695 16.459 29.762 21.645 32.918 0 0 4.059 5.411 16.685-4.51 0 0 30.664-24.35 42.613-31.566 0 0 0 0 0 0 0 0 10.146-7.44 24.802-29.311 0.226-0.226 0.226-0.451 0.451-0.676l47.799-51.857c0.225-0.226 0.45-0.451 0.45-0.451 2.029-1.578 15.107-12.627 22.322-26.154 0 0 2.255-6.088 10.597-8.117 0 0 8.342-2.255 24.802-10.823 0 0 2.029-1.127 1.578-1.804-0.676-0.676-1.352-1.578 0.451-2.254l0.676-0.451c1.578-0.902 1.127-3.382-0.676-3.608-1.353-0.226-3.608-0.226-6.99 0.226 0 0-8.569 1.352-11.95 4.734 0 0-1.804 1.127-3.608 0.226 0 0-3.382-1.127-3.608-3.382 0 0-0.451-0.451 1.578-3.382 0.226-0.226 0.451-0.676 0.676-0.902 0.902-0.902 2.93-2.93 3.156-3.832 0 0 1.804-4.059-2.93-1.804 0 0-9.019 8.342-14.43 10.597 0 0-2.706 1.804-6.99 0.902-1.127-0.226-2.029-0.676-2.706-1.578-0.676-0.902-1.578-2.029-1.578-3.608 0 0-0.45-2.48 1.127-4.059 0 0 3.832-3.156 4.059-5.186 0 0 2.48-6.313-4.961-2.255 0 0-15.557 18.263-22.772 18.489 0 0-8.793 1.352-11.273-3.832 0 0-5.636-14.43-14.881-17.812 0 0-16.009-4.961-5.411 4.059 0 0 5.636 4.51 4.961 12.401 0 0-2.48 15.782 7.666 24.576 0.676 0.676 1.353 1.352 1.578 2.254 0.902 2.48 1.804 8.342-3.608 14.43 0 0-41.035 47.348-50.053 50.505 0 0-10.146 7.666-19.616 9.244-2.255 0.451-4.284-0.676-5.411-2.706-1.353-2.48-2.48-6.538-0.451-12.401 0.226-0.676 0.676-1.578 1.352-2.029 1.127-0.902 2.706-3.157 2.706-7.44l-2.255-81.394c0 0-0.226-14.43-12.851-18.939-2.029-0.676-3.382-2.48-3.608-4.51-0.226-2.029 0-5.186 0.902-9.471 0 0 0 0 0 0 0 0 0.902-4.059 4.059-8.117 2.706-3.382 6.764-5.411 11.048-5.636 4.059-0.226 9.019-0.45 9.47-0.676 32.692-1.127 21.194-10.372 25.703-19.165 2.93-6.088 7.215-2.706 7.44-6.088 0 0 0.226-3.156 0.226-3.156l-1.352-9.471c-0.451-3.156 1.352-5.862 4.284-6.99 0.451-0.226 1.127-0.226 1.578-0.45 0 0 2.706-0.226-0.225-5.186-3.156-5.186-8.117-9.019-7.666-14.881 0-0.451 0-1.127 0.226-1.578 0 0 5.862-36.751-14.43-46.447-0.451-0.226-0.676-0.45-1.127-0.676-3.157-2.706-21.87-17.361-51.632-14.43 0 0-27.733 2.706-34.723 36.075 0 0.45-0.226 0.902-0.45 1.352-1.578 3.156-8.342 18.489 1.127 36.075 0.225 0.451 0.45 1.127 0.45 1.578 0.225 2.029 0.676 6.99-0.226 9.695-0.225 0.902-1.127 1.353-2.029 1.127h-0.226c-1.127 0.226-1.578 0.676-2.255 1.578l-0.676 3.382c1.127 1.804-1.127 3.608-3.832 3.608z" fill="#c319bd" p-id="4896"></path></svg>