<?xml version="1.0" standalone="no"?><!DOCTYPE svg PUBLIC "-//W3C//DTD SVG 1.1//EN" "http://www.w3.org/Graphics/SVG/1.1/DTD/svg11.dtd"><svg t="1508808660535" class="icon" style="" viewBox="0 0 1024 1024" version="1.1" xmlns="http://www.w3.org/2000/svg" p-id="2316" xmlns:xlink="http://www.w3.org/1999/xlink" width="13" height="13"><defs><style type="text/css"></style></defs><path d="M520.916707 1023.967233c-4.632428 0-9.256664-0.120828-13.942338-0.481265-31.42965-1.982401-61.724745-10.094269-90.326198-24.038654-11.001504-5.287767-17.608141-16.645611-16.891363-28.849253l4.325237-69.711689c-30.469169-8.355573-59.375764-19.950978-86.41669-34.737065l-63.526927 55.951618c-9.07235 8.115964-22.236472 9.854661-33.174491 4.450161-28.544111-14.063166-53.545295-33.1151-74.278583-56.432882-20.673898-23.61678-36.363124-50.725289-46.881316-80.895459-4.024191-11.476625-0.659435-24.276215 8.476401-32.39218l52.466033-46.273079a402.136508 402.136508 0 0 1-36.422514-85.701961l-84.677995-5.287767c-12.078717-0.780263-22.596909-8.775399-26.504368-20.254072C2.926498 569.141467-1.282007 538.072254 0.581613 506.880164c1.984448-31.25148 10.034879-61.481041 23.917827-90.266808 5.291863-11.056798 15.869444-17.608141 28.910691-16.946657l69.773127 4.325237c8.353525-30.467121 20.014464-59.375764 34.794407-86.420786l-56.011008-63.463441a30.030911 30.030911 0 0 1-4.386676-33.174491c14.122556-28.726377 33.17449-53.725513 56.490225-74.282679C177.449426 126.040127 204.61118 110.293559 234.783399 99.775367c11.415187-3.964801 24.276215-0.659435 32.392179 8.533743l46.215737 52.345205c27.344021-15.502864 56.011008-27.704457 85.697866-36.356981l5.289815-84.677994c0.780263-12.138108 8.773351-22.656299 20.313462-26.56171 30.106685-10.221241 60.938338-14.728745 92.490864-12.500592 31.134748 1.92301 61.421651 9.975489 90.20537 23.915779 11.003552 5.289815 17.608141 16.711145 16.891363 28.906595l-4.327285 69.654347c30.407731 8.355573 59.377812 20.014464 86.541614 34.80055l63.402003-55.894275c9.135836-7.993088 22.295863-9.795271 33.174491-4.386676 28.611692 14.063166 53.610828 33.053662 74.284727 56.373492 20.790631 23.799046 36.479857 50.960801 46.809638 80.946658 3.968897 11.478673 0.663531 24.282359-8.531695 32.334837l-52.281719 46.158395c15.498768 27.280535 27.70241 56.011008 36.354932 85.757256l84.620653 5.289815c12.078717 0.780263 22.598957 8.773351 26.502319 20.254072 10.340021 29.926466 14.544431 61.059166 12.740201 92.433522-2.043839 31.368212-10.155707 61.659211-24.100093 90.262711-5.291863 11.060894-16.164347 17.610188-28.843109 16.891364l-69.717833-4.325238c-8.292087 30.405683-19.950978 59.375764-34.739112 86.480177l56.011007 63.522831c8.06067 9.01296 9.739976 22.177082 4.327286 33.1151-14.063166 28.669035-33.111004 53.668171-56.365301 74.282679-23.743752 20.790631-50.905507 36.475761-80.838117 46.811686-11.359892 4.087677-24.278263 0.722921-32.394227-8.472304L710.643499 863.204377c-27.219097 15.50696-55.945474 27.704457-85.697865 36.356981l-5.287767 84.618604c-0.784359 12.203641-8.775399 22.656299-20.31551 26.504368-25.482449 8.834789-51.921283 13.282903-78.42565 13.282903z m-59.859077-70.913827a176.634348 176.634348 0 0 0 49.64398 10.452658c15.8633 1.083357 33.715145-0.362484 50.23788-4.085629l5.412691-85.097821a30.127164 30.127164 0 0 1 23.194905-27.468945c39.007008-9.01296 76.205689-24.999136 110.52088-47.532559 12.500592-8.118012 29.086813-6.012736 38.947618 5.285719l48.857572 55.41301a181.614924 181.614924 0 0 0 42.490544-27.704457 177.428946 177.428946 0 0 0 32.631788-38.644523l-56.250616-63.764488c-8.775399-9.975489-9.975489-24.524015-3.008416-35.816326 21.095773-33.835973 36.057982-71.395091 44.415603-111.845893 3.067806-14.663211 16.827878-24.038655 31.31087-23.79495l73.621196 4.566893a179.310998 179.310998 0 0 0 10.512048-49.703369c1.028063-16.827878-0.419827-33.719241-4.142972-50.241976l-85.09782-5.410643a29.992 29.992 0 0 1-27.403411-23.199002c-9.015008-39.121692-25.003232-76.32447-47.483409-110.516783-8.232697-12.500592-5.947202-29.146203 5.291863-39.002912l55.290134-48.802278a180.361588 180.361588 0 0 0-27.706505-42.547887 179.861892 179.861892 0 0 0-38.583085-32.572398l-63.825926 56.250616c-9.975489 8.773351-24.515823 10.038975-35.814278 2.94493-33.715145-21.093725-71.397139-36.053886-111.839749-44.409459-14.667307-3.065758-24.882404-16.406003-23.92397-31.314966l4.632427-73.67649c-16.1111-5.771079-32.69937-9.258712-49.523151-10.337973-17.071582-1.083357-33.776583 0.360436-50.362804 4.147067l-5.353301 85.097821a30.114876 30.114876 0 0 1-23.256344 27.407507c-38.941474 8.949474-76.144251 24.93565-110.518831 47.475217-12.500592 8.175354-29.027423 5.887812-38.94557-5.287767l-48.80023-55.294231c-15.502864 7.276311-29.7442 16.528879-42.367669 27.704458a175.286807 175.286807 0 0 0-32.68913 38.527791l56.307959 63.823878c8.775399 9.977537 9.918147 24.579309 2.887587 35.816325-21.036383 33.657803-35.996544 71.280407-44.472945 111.841797-3.002272 14.667307-16.283127 24.761576-31.308822 23.799047l-73.623244-4.564846a179.425682 179.425682 0 0 0-10.395315 49.703369c-1.021919 16.768487 0.360436 33.594317 4.145019 50.239929l85.161307 5.287767c13.280855 0.843749 24.399091 10.337973 27.401363 23.256343 9.01296 39.068446 25.001184 76.328565 47.481361 110.46149 8.234744 12.566126 6.006592 29.209689-5.228377 39.066397L164.115324 787.840389c7.270167 15.62574 16.522735 29.811782 27.704458 42.490544 11.177626 12.559982 24.095997 23.620876 38.578989 32.635884l63.827974-56.252664c9.975489-8.775399 24.575214-10.098365 35.816326-2.94493 33.594317 20.915555 71.216921 35.939202 111.841797 44.352117 14.603821 3.067806 24.761576 16.408051 23.799046 31.308822l-4.626284 73.623244z m0 0" p-id="2317" fill="#bfbfbf"></path><path d="M512.081917 701.659211c-104.57163 0-189.669451-85.099869-189.66945-189.730889 0-104.573678 85.097821-189.669451 189.66945-189.66945 104.633068 0 189.730889 85.097821 189.730889 189.66945 0 104.63102-85.097821 189.730889-189.730889 189.730889z m0-307.161499c-64.724969 0-117.432658 52.646251-117.432658 117.432658 0 64.727017 52.705641 117.434706 117.432658 117.434706 64.729065 0 117.432658-52.705641 117.432659-117.434706s-52.703593-117.432658-117.432659-117.432658z m0 0" p-id="2318" fill="#bfbfbf"></path></svg>