<?xml version="1.0" standalone="no"?><!DOCTYPE svg PUBLIC "-//W3C//DTD SVG 1.1//EN" "http://www.w3.org/Graphics/SVG/1.1/DTD/svg11.dtd"><svg t="1508747474988" class="icon" style="" viewBox="0 0 1024 1024" version="1.1" xmlns="http://www.w3.org/2000/svg" p-id="15909" xmlns:xlink="http://www.w3.org/1999/xlink" width="25" height="25"><defs><style type="text/css"></style></defs><path d="M1023.64672 979.24608l-118.4-761.5488c-6.28224-43.25888-29.02016-81.47456-64.03584-107.62752-35.03104-26.14784-78.1312-37.0944-121.38496-30.82752-43.24864 6.28224-81.47456 29.01504-107.6224 64.03584a163.26144 163.26144 0 0 0-27.06432 55.72608v-30.33088c0-90.22976-73.40544-163.62496-163.62496-163.62496-52.32128 0-98.97472 24.6784-128.9472 63.01184C262.59456 29.72672 215.94112 5.0432 163.61984 5.0432 73.40032 5.0432 0 78.44352 0 168.67328v815.60576a34.68288 34.68288 0 0 0 34.67776 34.67264h944.86016c0.93696 0 10.46016-0.0512 11.37664-0.12288a34.68288 34.68288 0 0 0 24.6272-11.92448 34.72384 34.72384 0 0 0 8.10496-27.65824zM660.5056 174.72512c14.6944-19.99872 44.35456-34.72384 69.2736-38.32832 24.91392-3.61472 53.03808 2.54976 78.57152 20.608 25.52832 18.06336 36.76672 44.30848 40.38144 69.1968l115.6352 734.8736h-216.87296L635.43808 254.53056c-3.5584-24.86272 10.368-59.80672 25.06752-79.80544z m29.63456 786.35008h-105.00096V288.5376l105.00096 672.5376zM57.83552 168.66304c0-51.97312 37.3504-106.06592 105.78432-106.06592S263.5008 116.6848 263.5008 168.66304V961.0752H57.83552V168.66304zM320.9728 961.0752V168.66304c0-51.97312 34.81088-106.03008 100.54144-106.03008s105.58464 54.05184 105.58464 106.03008V961.0752H320.9728z" fill="#d4237a" p-id="15910"></path></svg>