<?xml version="1.0" standalone="no"?><!DOCTYPE svg PUBLIC "-//W3C//DTD SVG 1.1//EN" "http://www.w3.org/Graphics/SVG/1.1/DTD/svg11.dtd"><svg t="1508747969935" class="icon" style="" viewBox="0 0 1024 1024" version="1.1" xmlns="http://www.w3.org/2000/svg" p-id="18421" xmlns:xlink="http://www.w3.org/1999/xlink" width="25" height="25"><defs><style type="text/css"></style></defs><path d="M200.795189 216.043475l536.641213 0 0 76.025511L200.795189 292.068985 200.795189 216.043475 200.795189 216.043475zM200.795189 216.043475" p-id="18422" fill="#0956e1"></path><path d="M200.795189 387.045103l536.641213 0 0 76.000951L200.795189 463.046055 200.795189 387.045103 200.795189 387.045103zM200.795189 387.045103" p-id="18423" fill="#0956e1"></path><path d="M562.510394 558.051849 200.795189 558.051849l0 75.971275 305.421085 0L562.510394 558.051849zM562.510394 558.051849" p-id="18424" fill="#0956e1"></path><path d="M422.310282 729.029942l-221.515093 0 0 76.000951 174.259836 0L422.310282 729.029942zM422.310282 729.029942" p-id="18425" fill="#0956e1"></path><path d="M387.491265 873.324302l42.665729 0c105.294115-112.99654 127.991046-127.991046 127.991046-127.991046 240.642732-22.38073 383.891274-426.555979 383.891274-426.555979C573.522192 609.955986 387.491265 873.324302 387.491265 873.324302L387.491265 873.324302zM387.491265 873.324302" p-id="18426" fill="#0956e1"></path><path d="M781.408893 956.967304 156.791999 956.967304c-40.890292 0-74.137511-33.305547-74.137511-74.195839l0-744.445026c0-40.919968 33.247218-74.167187 74.137511-74.167187l624.616894 0c40.890292 0 74.167187 33.247218 74.167187 74.167187l0 744.445026C855.577103 923.661757 822.299185 956.967304 781.408893 956.967304L781.408893 956.967304zM156.791999 115.337865c-12.640901 0-22.98755 10.288321-22.98755 22.988574l0 744.445026c0 12.640901 10.345626 22.988574 22.98755 22.988574l624.616894 0c12.640901 0 22.988574-10.347672 22.988574-22.988574l0-744.445026c0-12.700253-10.347672-22.988574-22.988574-22.988574L156.791999 115.337865 156.791999 115.337865zM156.791999 115.337865" p-id="18427" fill="#0956e1"></path></svg>