<?xml version="1.0" standalone="no"?><!DOCTYPE svg PUBLIC "-//W3C//DTD SVG 1.1//EN" "http://www.w3.org/Graphics/SVG/1.1/DTD/svg11.dtd"><svg t="1508816523920" class="icon" style="" viewBox="0 0 1024 1024" version="1.1" xmlns="http://www.w3.org/2000/svg" p-id="8487" xmlns:xlink="http://www.w3.org/1999/xlink" width="25" height="25"><defs><style type="text/css"></style></defs><path d="M938.043273 276.619074l-1.254634-2.001683-32.61024-32.351331c8.777318-12.041822 13.553317-26.315581 13.553317-40.617995 0-17.541333-6.52082-35.359995-20.075161-48.402658l-26.318651-26.059742-1.254634-1.513542c-13.046757-12.041822-30.325087-18.562642-47.142908-18.562642l0-0.48814c-14.043505 0-28.087009 4.775999-40.621065 14.038388l-32.582609-32.836401 0 0 0 0c-13.04164-13.299525-30.607533-20.080277-48.397542-20.080277-17.559753 0-35.101086 6.780752-48.402658 20.080277l0 0-22.82594 22.797286-1.231096 1.260774c-6.52082 6.261911-11.785983 14.302413-15.044346 22.313239-12.788871-11.527074-29.093991-17.305961-45.140202-17.305961-17.791032 0-35.355902 6.779729-48.65645 19.821369l-24.058059 24.057036 0 0 0 0-1.000841 2.002706c-12.535079 12.811385-19.054875 30.094832-19.054875 46.658861 0 17.532123 7.009984 35.096993 20.055717 48.62882l0 0 70.711804 70.22264-2.261615 1.488982L326.978388 567.226391l-68.966983-69.456147-1.001865-0.741933c-13.271895-13.301572-31.090557-20.052647-48.626773-20.052647-17.306985 0-35.125647 6.751075-48.402658 20.052647l-24.086713 23.827804-0.229232 0.257886c-12.788871 13.272918-19.310714 30.837788-19.310714 48.369911 0 16.310237 5.524072 32.61024 17.048076 45.399111-8.294295 3.262457-16.046211 8.518409-22.568054 14.790554l0 0-24.08569 24.086713c-13.019126 13.530804-19.539946 31.06702-19.539946 48.62882 0 17.305961 6.52082 34.870831 19.539946 48.143749l32.61024 32.834354c-8.520456 12.044892-13.301572 26.348329-13.301572 40.879974 0 17.560777 6.52082 34.612946 19.821369 48.143749l26.57756 26.343212c13.042663 13.266778 30.578879 19.793738 48.62882 19.793738 13.812226 0 28.087009-4.006436 40.644602-13.042663l32.092422 32.61024c13.278035 13.042663 30.837788 19.792715 48.374004 19.792715 17.818662 0 35.354878-6.750051 48.397542-19.792715l1.25975-1.514566 23.056195-22.567031 0 0c6.52082-7.009984 11.556751-14.532668 14.791577-22.568054 13.045733 11.551634 29.091944 17.560777 45.397064 17.560777 17.560777 0 35.356925-7.0151 48.65645-20.565348l22.797286-22.572148 1.006982-1.490005 0.258909 0-0.258909 0 0.258909 0c13.295432-13.301572 20.305416-30.607533 20.305416-48.143749 0-17.554637-7.009984-35.609694-20.305416-48.651334l-0.258909 0 0 0.258909-70.199103-70.456988 237.705989-237.221942 1.25975-1.743797 70.458011 70.452895 0 0 0 0 0 0 1.490005 1.513542c13.042663 12.039775 29.835923 18.303733 47.136768 18.303733 17.560777 0 35.098016-6.257818 48.138633-19.817275l1.260774-1.495122 22.82594-22.562937c13.277011-13.558434 20.05674-31.095674 20.05674-48.65645 0-16.046211-5.778887-32.351331-17.306985-45.37455 8.265641-3.262457 15.787302-8.289178 22.314262-15.303255l0 0 24.081597-23.568896 0-0.512701c13.271895-13.018103 19.792715-30.578879 19.792715-48.143749C956.581354 306.709813 950.578352 289.660714 938.043273 276.619074L938.043273 276.619074 938.043273 276.619074zM822.940364 149.241018 822.940364 149.241018c6.262934 0 12.788871 2.260592 17.818662 7.033521l0.489164 1.000841 26.831352 25.807997c5.007277 5.029791 7.009984 11.781889 7.009984 18.560595 0 3.775158-0.489164 6.780752-1.490005 9.7843l-60.185571-60.184548C816.188265 150.24186 819.935792 149.241018 822.940364 149.241018L822.940364 149.241018 822.940364 149.241018zM201.089314 876.156885 201.089314 876.156885c-7.00896 0-14.018944-2.515407-18.537058-7.522685l-26.57756-26.343212c-5.029791-4.753485-7.781594-11.527074-7.781594-18.048917 0-3.516249 0.748073-7.00896 2.002706-10.013531l60.190688 60.155894C207.611157 875.644184 203.86363 876.156885 201.089314 876.156885L201.089314 876.156885 201.089314 876.156885zM364.82616 883.908801 364.82616 883.908801 364.82616 883.908801 364.82616 883.908801l-23.056195 22.572148-1.001865 1.514566c-5.007277 5.007277-11.785983 7.521661-18.565712 7.521661-6.262934 0-13.272918-2.514384-18.307826-7.521661L116.842613 720.939472c-5.26107-5.031838-7.522685-12.041822-7.522685-18.561618 0-6.780752 2.261615-13.530804 7.522685-18.561618l24.086713-24.057036c5.007277-5.007277 11.527074-7.522685 18.537058-7.522685 6.291588 0 13.301572 2.515407 18.307826 7.522685l188.569585 188.559352c4.006436 4.49867 6.008119 10.526232 6.008119 17.053192C372.348844 872.379681 370.11486 878.901524 364.82616 883.908801L364.82616 883.908801 364.82616 883.908801zM497.724194 797.667581 497.724194 797.667581c5.031838 5.007277 7.522685 11.78803 7.522685 18.557525 0 6.52696-2.490847 13.53592-7.522685 18.542174l-1.000841 1.001865-23.061311 22.567031c-5.029791 5.266186-11.781889 8.035386-18.561618 8.035386l0 0c-6.52082 0-13.295432-2.515407-18.560595-7.527801l0-0.507584L165.757972 588.045531c-5.035931-5.007277-7.293453-12.041822-7.293453-18.566735 0-6.745958 2.261615-13.525687 7.293453-18.532964l24.057036-24.09183c5.266186-5.002161 11.785983-7.517568 18.566735-7.517568 7.009984 0 13.530804 2.515407 18.537058 7.517568l1.25975 1.005958L497.724194 797.667581 497.724194 797.667581 497.724194 797.667581zM644.925665 410.006272 644.925665 410.006272 407.468351 647.462563l-30.607533-30.324064 237.968992-237.221942 1.490005-2.002706 30.607533 30.608557L644.925665 410.006272 644.925665 410.006272 644.925665 410.006272zM857.548193 474.708933 857.548193 474.708933 857.548193 474.708933l-22.82594 23.061311-1.001865 1.001865-0.258909 0c-4.748369 5.030815-11.785983 7.521661-18.048917 7.521661-6.52082 0-13.04164-2.490847-17.791032-6.52082l-0.747049-1.000841 0 0 0 0L526.818185 229.482306l-0.741933-1.495122 0 0 0 0c-5.266186-5.026721-7.527801-11.556751-7.527801-18.557525 0-6.525937 2.007823-13.04778 6.525937-17.56487l1.001865-1.001865 24.057036-24.057036c5.029791-4.519137 11.527074-7.522685 18.561618-7.522685 6.52082 0 13.271895 3.003548 18.307826 7.522685l41.362997 41.110229 0.512701 0.512701L815.675564 395.479744l41.877745 42.134607 0.258909 0c5.26107 5.007277 7.522685 11.529121 7.522685 18.539104C865.329786 463.181859 863.068171 469.701656 857.548193 474.708933L857.548193 474.708933 857.548193 474.708933zM906.946576 341.810899 906.946576 341.810899l-24.080573 24.086713 0 0 0 0 0 0c-5.011371 5.007277-11.787006 7.521661-18.543198 7.521661l0 0.489164c-6.032679 0-12.298684-2.515407-17.071613-6.521843l-188.798817-189.053632c-4.778046-4.522207-7.009984-11.532191-7.009984-18.053011 0-6.780752 2.231938-13.555364 7.522685-18.561618l0.741933-1.25975 23.315103-22.797286 0 0c5.007277-5.035931 11.527074-7.527801 18.307826-7.527801 6.52082 0 13.53592 2.495964 18.565712 7.527801l0 0 187.793882 188.051767c4.51709 4.748369 6.779729 11.038933 6.779729 17.536216C914.46926 330.282802 911.953853 336.804645 906.946576 341.810899L906.946576 341.810899 906.946576 341.810899zM906.946576 341.810899" p-id="8488" fill="#1296db"></path></svg>