<?xml version="1.0" standalone="no"?><!DOCTYPE svg PUBLIC "-//W3C//DTD SVG 1.1//EN" "http://www.w3.org/Graphics/SVG/1.1/DTD/svg11.dtd"><svg t="1508387637687" class="icon" style="" viewBox="0 0 1024 1024" version="1.1" xmlns="http://www.w3.org/2000/svg" p-id="2596" xmlns:xlink="http://www.w3.org/1999/xlink" width="28" height="28"><defs><style type="text/css"></style></defs><path d="M512 64C264.6 64 64 264.6 64 512c0 247.4 200.6 448 448 448 247.4 0 448-200.6 448-448C960 264.6 759.4 64 512 64zM631.8 218.1c24.8 10.7 48.6 24.9 70.5 42.6 9 7.2 17.7 15 25.9 23.4 19.4 19.7 35.5 41.4 48.6 64.4 3.3 5.8 6.4 11.7 9.3 17.6L631.8 522.8C633.4 513.3 631.8 218.1 631.8 218.1zM477.7 195.9c11.4-1.4 22.9-2.1 34.6-2.1 27.4 0 54 3.8 79.3 10.7 6.3 1.8 12.6 3.7 18.8 5.8l0 221.5c-5.5-7.7-212.3-215.5-212.3-215.5C423.2 206.2 449.8 199.1 477.7 195.9zM271.5 312.3c7.1-9.1 14.7-17.9 23.1-26.3 19.4-19.7 40.8-36 63.5-49.3 5.7-3.3 11.5-6.4 17.3-9.4l154.3 156.7c-9.3-1.5-300.2 0.1-300.2 0.1C240 358.7 254 334.6 271.5 312.3zM207.5 540.9c-1.3-11.5-2.1-23.3-2.1-35.2 0-27.8 3.7-54.8 10.5-80.4 1.7-6.4 3.6-12.9 5.7-19.1l218.3 0c-7.7 5.6-212.2 215.5-212.2 215.5C217.5 596.2 210.6 569.2 207.5 540.9zM321.2 750c-9-7.2-17.7-15-25.9-23.4-19.4-19.7-35.5-41.4-48.6-64.5-3.3-5.8-6.4-11.6-9.3-17.6l154.3-156.7c-1.5 9.5 0.1 304.7 0.1 304.7C366.8 781.9 343.1 767.7 321.2 750zM546 816.3c-11.3 1.3-22.9 2.1-34.6 2.1-27.4 0-54-3.8-79.2-10.7-6.3-1.7-12.6-3.7-18.8-5.8L413.4 580.3c5.5 7.8 212.3 215.5 212.3 215.5C600.6 806 573.9 813.1 546 816.3zM750.8 701.1c-7.1 9.1-14.8 17.9-23 26.3-19.4 19.7-40.8 36.1-63.5 49.3-5.7 3.3-11.5 6.5-17.4 9.4L492.6 629.5c9.3 1.5 300.2 0 300.2 0C782.2 654.7 768.2 678.8 750.8 701.1zM807.8 587.1c-1.7 6.4-3.6 12.8-5.7 19.1L583.8 606.2c7.7-5.6 212.2-215.5 212.2-215.5 10.1 25.4 17 52.5 20.2 80.8 1.3 11.5 2.1 23.3 2.1 35.2C818.3 534.5 814.6 561.4 807.8 587.1z" p-id="2597" fill="#00FA9A"></path></svg>