<?xml version="1.0" standalone="no"?><!DOCTYPE svg PUBLIC "-//W3C//DTD SVG 1.1//EN" "http://www.w3.org/Graphics/SVG/1.1/DTD/svg11.dtd"><svg t="1508748670278" class="icon" style="" viewBox="0 0 1024 1024" version="1.1" xmlns="http://www.w3.org/2000/svg" p-id="21819" xmlns:xlink="http://www.w3.org/1999/xlink" width="16" height="16"><defs><style type="text/css"></style></defs><path d="M843.25888 102.47168H180.74112c-48.69632 0-88.30976 39.61344-88.30976 88.30976v441.67168c0 48.69632 39.61344 88.30976 88.30976 88.30976h366.22336l192.3328 192.26624a22.0928 22.0928 0 0 0 15.65184 6.49728 21.7856 21.7856 0 0 0 15.58016-6.49728c8.59136-8.59136 8.59136-22.56896 0-31.232l-198.8352-198.69184a22.05184 22.05184 0 0 0-15.58016-6.49728H180.736c-24.30976 0-44.15488-19.84512-44.15488-44.15488V190.78144c0-24.38144 19.84512-44.15488 44.15488-44.15488h662.51264c24.30976 0 44.15488 19.84512 44.15488 44.15488v441.67168c0 24.30976-19.84512 44.15488-44.15488 44.15488h-88.09472a22.03648 22.03648 0 0 0-22.07744 22.07744 22.03648 22.03648 0 0 0 22.07744 22.07744h88.09472c48.69632 0 88.30976-39.61344 88.30976-88.30976V190.78144c0.00512-48.69632-39.60832-88.30976-88.29952-88.30976z" fill="#bfbfbf" p-id="21820"></path></svg>