<?xml version="1.0" standalone="no"?><!DOCTYPE svg PUBLIC "-//W3C//DTD SVG 1.1//EN" "http://www.w3.org/Graphics/SVG/1.1/DTD/svg11.dtd"><svg t="1508387608730" class="icon" style="" viewBox="0 0 1025 1024" version="1.1" xmlns="http://www.w3.org/2000/svg" p-id="2376" xmlns:xlink="http://www.w3.org/1999/xlink" width="28.02734375" height="28"><defs><style type="text/css"></style></defs><path d="M1024.842181 877.105419c0 14.772448-0.934279 29.303396-2.526543 43.627636l-31.102369 0c1.729387-14.323217 2.940982-28.785603 2.940982-43.627636 0-182.501544-136.071072-331.027276-303.348889-331.027276-7.646144 0-15.120372 0.656963-22.592554 1.280156l0-33.905204c7.40362 1.072425 14.911618 1.798972 22.592554 1.798972 96.006588 0 174.126806-85.49007 174.126806-190.562127 0-105.107873-78.120218-190.596919-174.126806-190.596919-7.680936 0-15.188934 0.726547-22.592554 1.798972L668.212808 104.685247c7.438413-0.864694 14.94641-1.418302 22.592554-1.418302 112.924909 0 204.815759 99.328239 204.815759 221.422995 0 89.952708-49.958832 167.381172-121.368208 202.012923C918.178883 566.940286 1024.842181 708.788945 1024.842181 877.105419L1024.842181 877.105419zM774.599813 919.002644c0 28.473495-2.664689 56.323796-7.679913 83.20605l-36.465516 0L44.146453 1002.208695 7.680936 1002.208695c-5.016247-26.882254-7.680936-54.732555-7.680936-83.20605 0-195.163935 123.651204-359.63994 290.548352-406.310889-82.826404-40.133046-140.741441-129.912815-140.741441-234.18874 0-141.572366 106.525152-256.712733 237.510392-256.712733 130.951471 0 237.476623 115.140367 237.476623 256.712733 0 104.275925-57.916061 194.055694-140.741441 234.18874C650.949632 559.363727 774.599813 723.839733 774.599813 919.002644L774.599813 919.002644z" p-id="2377" fill="#00FA9A"></path></svg>