<?xml version="1.0" standalone="no"?><!DOCTYPE svg PUBLIC "-//W3C//DTD SVG 1.1//EN" "http://www.w3.org/Graphics/SVG/1.1/DTD/svg11.dtd"><svg t="1505008462771" class="icon" style="" viewBox="0 0 1024 1024" version="1.1" xmlns="http://www.w3.org/2000/svg" p-id="5914" xmlns:xlink="http://www.w3.org/1999/xlink" width="200" height="200"><defs><style type="text/css"></style></defs><path d="M513.664 17.92c-277.82144 0-503.04 225.21856-503.04 503.04S235.84256 1024 513.664 1024c277.82656 0 503.04-225.21856 503.04-503.04 0.00512-277.82144-225.20832-503.04-503.04-503.04zM211.44064 628.34688c-10.07616 13.06624-25.49248 17.83296-41.15968 12.8512-14.24384-4.5568-24.24832-18.15552-24.64256-34.14016-0.21504-11.25376-0.07168-22.50752-0.07168-33.80224v-52.37248c0-28.16-0.07168-56.32512 0.07168-84.5312 0.03072-18.048 10.54208-31.75936 27.56096-36.45952 20.64896-5.69856 43.008 9.6512 44.93312 30.90944 0.35328 3.98848 0.56832 7.97696 0.60416 11.9296 0.03584 53.58592 0.03584 107.20768 0.03584 160.83456 0.00512 8.97024-1.70496 17.47968-7.33184 24.7808z m137.83552 80.7168c-15.52384 20.18816-42.91072 28.94336-68.0448 21.61152-24.6784-7.18848-43.01312-29.48096-45.07648-54.84032a143.52384 143.52384 0 0 1-0.43008-11.10016c-0.03584-96.56832-0.03584-193.2032 0-289.80736 0-25.2416 10.25536-44.96896 32.11776-57.89696 39.84384-23.53664 92.04224 4.3776 94.6432 50.48832 0.64 10.5728 0.42496 21.15072 0.42496 31.72864 0.03584 40.65792 0 81.3568 0 122.05568 0 48.49152 0 96.98816 0.03584 145.4848 0.03584 15.6416-4.02432 29.7728-13.6704 42.27584z m301.97248-143.45728H376.01792V476.37504h275.23072v89.23136z m140.1856 102.15424c0 25.00096-10.43968 44.32896-31.9744 57.10848-38.13376 22.72256-88.98048-2.31424-94.32576-46.25408a89.67168 89.67168 0 0 1-0.74752-10.6752c-0.03072-97.99168-0.07168-195.98336-0.03072-293.93408 0-31.37024 19.18976-56.15104 48.99328-63.63136 35.03104-8.76032 71.71072 15.488 77.08672 51.12832 0.68096 4.77184 0.96256 9.5744 0.96256 14.3872 0.0768 48.35328 0.04096 96.74752 0.04096 145.09568l-0.00512 146.77504z m72.52992-29.952c-25.34912 14.8224-54.97344-2.63168-55.33184-32.25088v-0.86016-83.67616c0-28.0576-0.07168-56.08448 0-84.10624 0.07168-15.52384 6.69184-27.20256 20.5824-34.46272 21.64736-11.25376 49.63328 3.9168 51.97824 28.20096 0.3584 3.98848 0.57344 7.97696 0.57344 11.96544 0.07168 53.69344 0.03584 107.46368 0.03584 161.18784 0 14.49472-5.02272 26.52672-17.83808 34.00192z" p-id="5915" fill="#d81e06"></path></svg>