<?xml version="1.0" standalone="no"?><!DOCTYPE svg PUBLIC "-//W3C//DTD SVG 1.1//EN" "http://www.w3.org/Graphics/SVG/1.1/DTD/svg11.dtd"><svg t="1508744363198" class="icon" style="" viewBox="0 0 1024 1024" version="1.1" xmlns="http://www.w3.org/2000/svg" p-id="6550" xmlns:xlink="http://www.w3.org/1999/xlink" width="48" height="48"><defs><style type="text/css"></style></defs><path d="M546.589408 803.783111c-43.420444 60.529778-88.234667 122.894222-133.546667 183.253333-6.328889 8.448-12.174222 8.448-14.108444 8.448-4.835556 0-10.524444-2.218667-15.985778-6.243556-10.936889-8.064-11.960889-14.421333-4.209778-26.154667 14.222222-21.518222 28.060444-43.576889 41.443556-64.910222 14.193778-22.627556 28.856889-46.023111 43.818667-68.48 2.872889-4.309333 8.149333-8.775111 14.848-12.558222 11.050667-6.229333 25.429333-7.808 40.647111-9.472C528.17163 806.712889 537.330741 805.717333 546.589408 803.783111M576.128964 762.112c-2.346667 0-4.593778 0.568889-6.542222 1.806222-29.496889 21.546667-70.968889 9.358222-104.746667 28.373333-10.382222 5.859556-19.015111 13.226667-24.590222 21.603556-29.269333 43.946667-56.192 89.386667-85.304889 133.461333-17.166222 26.012444-10.567111 48.853333 11.079111 64.824889 10.396444 7.651556 21.816889 11.804444 32.910222 11.804444 13.582222 0 26.695111-6.215111 36.920889-19.868444 52.366222-69.774222 103.054222-140.771556 153.898667-211.612444C601.501408 776.177778 587.748519 762.112 576.128964 762.112L576.128964 762.112z" p-id="6551" fill="#FF00FF"></path><path d="M664.392075 28.515556 664.392075 28.515556c21.134222 0 41.329778 7.793778 56.860444 21.959111 26.695111 24.362667 31.943111 66.645333 12.188444 98.360889-10.055111 16.128-29.553778 35.370667-65.393778 35.370667-15.971556 0-33.905778-3.754667-53.319111-11.150222l-8.135111-3.100444c-35.584-87.651556-16.398222-108.728889 14.577778-128.839111C633.814297 32.867556 648.761853 28.515556 664.392075 28.515556M376.960964 125.738667c6.072889 0 15.431111 5.304889 24.476444 10.439111 3.939556 2.232889 7.850667 4.451556 11.747556 6.442667 43.448889 22.300444 96.355556 47.744 159.345778 67.299556l5.973333 1.848889 1.820444 2.929778c9.528889 15.374222 19.541333 28.273778 29.240889 40.760889 13.866667 17.848889 25.827556 33.265778 31.914667 50.659556 11.448889 32.739556 25.528889 66.090667 50.858667 88.263111 11.761778 10.296889 25.6 15.516444 41.159111 15.516444 16.64 0 31.886222-6.058667 45.326222-11.406222 7.438222-2.958222 14.464-5.745778 20.266667-6.954667 2.375111-0.497778 4.821333-1.024 7.338667-1.578667 9.244444-2.033778 18.816-4.152889 26.88-4.152889 9.130667 0 14.364444 2.019556 19.441778 13.525333 3.456 7.836444-0.085333 20.309333-2.887111 22.229333-56.519111 14.990222-114.944 30.478222-174.72 35.171556-0.64 0.056889-1.265778 0.071111-1.863111 0.071111-6.883556 0-10.723556-4.039111-21.617778-22.712889-1.450667-2.488889-2.901333-4.977778-4.352-7.367111l-0.625778-1.038222c-18.318222-30.250667-30.407111-50.247111-55.438222-50.247111-19.413333 0-32.696889 12.828444-55.111111 34.446222-37.589333 36.280889-58.296889 56.277333-61.212444 84.209778-2.972444 28.600889 13.582222 51.598222 43.633778 93.340444 13.937778 19.370667 28.842667 38.115556 43.264 56.248889 9.770667 12.273778 19.868444 24.974222 29.383111 37.532444 5.418667 7.168 6.926222 14.606222 4.323556 21.504-3.256889 8.675556-12.273778 15.317333-24.120889 17.749333-85.347556 17.635556-169.372444 37.091556-248.106667 55.495111-2.375111 0.554667-4.906667 0.839111-7.509333 0.839111-14.677333 0-29.468444-8.974222-31.644444-19.2-0.298667-1.379556 0.270222-4.394667 2.858667-8.32 5.219556-7.950222 15.018667-14.378667 24.988444-16.384 18.702222-3.783111 37.418667-8.120889 55.495111-12.316444 22.414222-5.191111 45.596444-10.567111 68.280889-14.748444 8.675556-1.592889 35.057778-6.456889 41.841778-30.136889 6.670222-23.267556-11.662222-39.992889-21.461333-48.938667-17.351111-15.900444-34.929778-31.601778-52.494222-47.288889-25.230222-22.528-51.313778-45.824-76.145778-69.276444-22.869333-21.603556-24.106667-44.032-3.896889-70.584889 28.572444-37.546667 63.232-69.134222 99.939556-102.570667 10.723556-9.770667 21.432889-19.527111 32-29.454222 8.817778-8.291556 27.164444-25.528889 25.372444-49.336889-1.649778-21.774222-19.057778-36.152889-32-45.070222-27.079111-18.645333-53.916444-27.719111-82.019556-27.719111-23.936 0-48.042667 6.641778-73.699556 20.309333-22.641778 12.060444-46.151111 22.172444-71.04 32.881778l-7.68 3.299556c-6.912 2.986667-13.994667 4.565333-20.508444 4.565333-9.472 0-16.981333-3.342222-20.081778-8.96-2.446222-4.408889-5.048889-10.595556-3.626667-15.061333 0.796444-2.503111 4.394667-9.173333 20.437333-16.824889 63.928889-30.535111 128.170667-57.159111 182.570667-79.175111C374.57163 125.966222 375.709408 125.738667 376.960964 125.738667M664.392075 0c-20.536889 0-41.016889 5.646222-58.780444 17.180444-52.920889 34.360889-60.401778 78.336-24.632889 165.489778-57.457778-17.834667-106.467556-40.618667-154.780444-65.422222-15.701333-8.064-31.672889-20.024889-49.237333-20.039111-4.679111 0-9.457778 0.839111-14.378667 2.844444-62.051556 25.102222-123.847111 51.057778-184.177778 79.886222-37.219556 17.763556-45.141333 43.150222-29.468444 71.438222 8.433778 15.246222 25.344 23.651556 45.027556 23.651556 10.126222 0 20.992-2.218667 31.800889-6.897778 27.249778-11.747556 54.684444-23.281778 80.824889-37.205333 20.764444-11.064889 40.604444-16.952889 60.288-16.952889 21.802667 0 43.406222 7.224889 65.848889 22.684444 27.832889 19.185778 23.822222 30.833778 3.285333 50.147556-46.549333 43.719111-96.241778 84.451556-135.096889 135.537778-28.544 37.518222-27.207111 76.259556 7.011556 108.572444 42.112 39.808 86.200889 77.681778 128.952889 116.864 13.255111 12.088889 24.846222 24.291556-6.272 30.023111-41.699556 7.68-82.688 18.744889-124.273778 27.150222-30.392889 6.115556-55.296 34.048-50.076444 58.581333 5.248 24.661333 32.341333 41.770667 59.534222 41.770667 4.693333 0 9.400889-0.512 13.994667-1.578667 82.304-19.242667 164.622222-38.243556 247.381333-55.338667 42.424889-8.760889 62.307556-50.616889 36.764444-84.394667-23.765333-31.345778-49.308444-61.354667-72.248889-93.240889-53.845333-74.808889-53.390222-75.121778 14.435556-140.572444 17.763556-17.137778 27.192889-26.254222 35.114667-26.254222 9.088 0 16.199111 11.960889 31.672889 37.532444 12.046222 19.84 22.4 43.818667 50.360889 43.818667 1.336889 0 2.702222-0.056889 4.110222-0.170667 61.354667-4.821333 120.732444-20.380444 179.783111-36.039111 22.371556-5.930667 31.288889-39.509333 21.660444-61.297778-10.638222-24.092444-27.704889-30.520889-45.525333-30.520889-13.752889 0-27.960889 3.825778-40.007111 6.328889-19.911111 4.124444-40.732444 17.777778-59.818667 17.777778-7.808 0-15.331556-2.289778-22.371556-8.448-20.935111-18.332444-33.166222-48.881778-42.723556-76.231111-12.344889-35.313778-41.031111-60.188444-63.829333-97.024 23.921778 9.116444 45.013333 13.027556 63.473778 13.027556 43.932444 0 72.974222-22.115556 89.585778-48.810667 27.178667-43.619556 19.712-100.849778-17.166222-134.499556C719.190297 9.998222 691.727186 0 664.392075 0L664.392075 0z" p-id="6552" fill="#FF00FF"></path></svg>