<?xml version="1.0" standalone="no"?><!DOCTYPE svg PUBLIC "-//W3C//DTD SVG 1.1//EN" "http://www.w3.org/Graphics/SVG/1.1/DTD/svg11.dtd"><svg t="1508417029023" class="icon" style="" viewBox="0 0 1024 1024" version="1.1" xmlns="http://www.w3.org/2000/svg" p-id="586" xmlns:xlink="http://www.w3.org/1999/xlink" width="25" height="25"><defs><style type="text/css"></style></defs><path d="M198.106 829.473c-177.257-177.257-176.812-465.091 0.993-642.897l641.903 641.903c-177.805 177.805-465.64 178.25-642.896 0.994z" fill="#ffffff" p-id="587"></path><path d="M277.844 737.507l12.227 12.226c33.763 33.763 33.678 88.589-0.19 122.457l-49.058 49.058c-33.868 33.868-88.694 33.953-122.457 0.19l-12.227-12.227c-33.763-33.763-33.678-88.589 0.19-122.456l49.058-49.058c33.868-33.869 88.694-33.953 122.457-0.19zM708.846 318.733c29.195 29.195 29.195 76.53 0 105.725-29.196 29.195-76.53 29.195-105.725 0-29.195-29.196-29.195-76.53 0-105.725 29.194-29.196 76.529-29.196 105.725 0z" fill="#ffffff" p-id="588"></path><path d="M606.896 375.371l45.31 45.311-158.587 158.587-45.311-45.31 158.588-158.588zM906.895 383.903c0-147.458-119.539-266.996-266.996-266.996V63.508c176.949 0 320.396 143.446 320.396 320.396h-53.4zM639.899 175.646c115.017 0 208.257 93.24 208.257 208.257h-48.059c0-88.475-71.723-160.198-160.198-160.198v-48.059z" fill="#ffffff" p-id="589"></path></svg>