<?xml version="1.0" standalone="no"?><!DOCTYPE svg PUBLIC "-//W3C//DTD SVG 1.1//EN" "http://www.w3.org/Graphics/SVG/1.1/DTD/svg11.dtd"><svg t="1508750001533" class="icon" style="" viewBox="0 0 1024 1024" version="1.1" xmlns="http://www.w3.org/2000/svg" p-id="24921" xmlns:xlink="http://www.w3.org/1999/xlink" width="16" height="16"><defs><style type="text/css"></style></defs><path d="M792.461959 658.315578C734.146296 658.315578 682.151673 686.315037 648.88859 729.595123L370.362885 572.818846C376.889184 553.934193 380.468126 533.567097 380.468126 512.56087 380.468126 491.345144 376.889184 471.195504 370.157622 452.104L648.467536 295.523967C681.514832 339.021515 733.73577 367.241085 792.256696 367.241085 892.040687 367.241085 973.516824 285.340417 973.516824 184.565706 973.516824 83.790995 892.256477 1.900934 792.256696 1.900934 692.256914 1.900934 610.996567 83.790995 610.996567 184.565706 610.996567 205.781435 614.575506 226.148534 621.307072 245.033185L343.205048 401.60261C310.155121 357.895558 257.944709 329.8961 199.413259 329.8961 99.629267 329.8961 18.15313 411.786161 18.15313 512.56087 18.15313 613.335583 99.629267 695.233598 199.629048 695.233598 258.149972 695.233598 310.360384 667.01668 343.6261 623.309628L621.943909 780.096513C615.20182 799.19067 611.417618 819.76197 611.417618 840.9777 611.417618 941.545559 692.677968 1023.653081 792.677746 1023.653081 892.677528 1023.653081 973.937874 941.752409 973.937874 840.9777 973.937874 740.202988 892.46174 658.315578 792.461959 658.315578L792.461959 658.315578ZM792.461959 59.395559C861.09865 59.395559 916.888003 115.614588 916.888003 184.783167 916.888003 253.941139 861.09865 310.160168 792.461959 310.160168 723.835792 310.160168 668.049072 253.941139 668.049072 184.783167 668.049072 115.614588 724.041055 59.395559 792.461959 59.395559L792.461959 59.395559ZM199.629048 637.948482C130.992356 637.948482 75.205636 581.729451 75.205636 512.56087 75.205636 443.400249 130.992356 387.181218 199.629048 387.181218 268.255213 387.181218 324.041933 443.400249 324.041933 512.56087 324.041933 581.729451 268.04995 637.948482 199.629048 637.948482L199.629048 637.948482ZM792.461959 966.161108C723.835792 966.161108 668.049072 909.928818 668.049072 840.770846 668.049072 771.602266 723.835792 715.383238 792.461959 715.383238 861.09865 715.383238 916.888003 771.602266 916.888003 840.770846 916.888003 909.928818 861.09865 966.161108 792.461959 966.161108L792.461959 966.161108Z" p-id="24922" fill="#bfbfbf"></path></svg>