<?xml version="1.0" standalone="no"?><!DOCTYPE svg PUBLIC "-//W3C//DTD SVG 1.1//EN" "http://www.w3.org/Graphics/SVG/1.1/DTD/svg11.dtd"><svg t="1508749449005" class="icon" style="" viewBox="0 0 1024 1024" version="1.1" xmlns="http://www.w3.org/2000/svg" p-id="22893" xmlns:xlink="http://www.w3.org/1999/xlink" width="25" height="25"><defs><style type="text/css"></style></defs><path d="M492.089458 0A492.088889 492.088889 0 1 1 0.000569 492.088889l8.533333-8.533333H56.889458l8.533333 8.533333a426.666667 426.666667 0 1 0 50.744889-201.955556h116.053333c14.677333 0 26.624 11.946667 26.624 26.680889v12.060445c0 14.791111-11.946667 26.680889-26.680889 26.680889H26.738347A26.680889 26.680889 0 0 1 0.000569 328.874667V316.871111c0-3.015111 0.512-5.916444 1.479111-3.128889A26.282667 26.282667 0 0 1 0.000569 304.981333V98.986667c0-14.563556 11.832889-26.396444 26.396444-26.396445h12.629334c14.563556 0 26.396444 11.832889 26.396444 26.396445v147.854222A491.918222 491.918222 0 0 1 492.089458 0z m199.452444 483.555556c14.791111 0 26.680889 11.946667 26.680889 26.680888v12.060445c0 14.791111-11.946667 26.680889-26.680889 26.680889H486.059236a26.680889 26.680889 0 0 1-26.680889-26.680889V510.293333c0-3.015111 0.512-5.916444 1.479111-3.128889a26.282667 26.282667 0 0 1-1.479111-8.704V268.174222c0-14.563556 11.832889-26.396444 26.396444-26.396444h12.629333c14.563556 0 26.396444 11.832889 26.396445 26.396444V483.555556h166.741333z" p-id="22894" fill="#0956e1"></path></svg>