<?xml version="1.0" standalone="no"?><!DOCTYPE svg PUBLIC "-//W3C//DTD SVG 1.1//EN" "http://www.w3.org/Graphics/SVG/1.1/DTD/svg11.dtd"><svg t="1508749279013" class="icon" style="" viewBox="0 0 1024 1024" version="1.1" xmlns="http://www.w3.org/2000/svg" p-id="22114" xmlns:xlink="http://www.w3.org/1999/xlink" width="25" height="25"><defs><style type="text/css"></style></defs><path d="M844.797725 343.037655H895.997375V89.569388C895.997375 40.109726 855.882649 0 806.397988 0c-49.494662 0-89.599388 40.099726-89.599388 89.569388v253.468267H767.99825V87.024405A35.803755 35.803755 0 0 1 803.812005 51.19965h5.171965A35.809755 35.809755 0 0 1 844.797725 87.024405V343.037655z m-588.795975 0h51.19965V89.569388C307.2014 40.109726 267.086674 0 217.602012 0 168.107351 0 128.002625 40.099726 128.002625 89.569388v253.468267h51.19965V87.024405A35.803755 35.803755 0 0 1 215.01603 51.19965h5.171965A35.809755 35.809755 0 0 1 256.00175 87.024405V343.037655z m-250.878285 127.999125s-0.03-60.323588 111.415238-87.321403c24.769831-5.999959 140.682038-17.673879 239.430364 31.672783 101.600305 50.774653 185.75273 162.701888 185.75273 162.701888s89.020391-166.648861 212.606546-194.374671c52.529641-11.785919 116.704202-10.719927 163.356884 9.287936 63.099569 27.059815 87.859399 62.617572 87.859399 62.617572 7.36195 8.513942 13.331909 24.549832 13.331909 35.915755v486.381675c0 25.446826-20.592859 46.074685-46.109685 46.074685H51.23315c-25.465826 0-46.109685-20.669859-46.109685-46.079685V471.03678z m51.337649 498.633591l910.959773-1.029993v-470.236785s-19.097869-25.329827-35.880755-38.05774c-16.793885-12.722913-40.396724-24.406833-65.192554-27.355813-59.882591-7.126951-108.24126-3.619975-167.832853 38.937734-59.580593 42.546709-130.609107 159.968906-130.609107 159.968906s22.516846 52.115644 36.57075 104.221288c14.059904 52.105644 21.196855 109.936248 21.196855 109.936248l-51.803646 3.711975s-10.684927-142.335027-74.500491-239.686361c-34.585764-52.751639-109.956248-116.633203-178.584779-149.733977-55.689619-26.859816-113.094227-29.725797-128.178124-30.171794-33.67377-0.992993-74.075494 2.87798-102.716297 16.854885-28.641804 13.977904-33.361772 41.328717-33.361772 41.328718l-0.067 481.316709z" fill="#d4237a" p-id="22115"></path></svg>