<?xml version="1.0" standalone="no"?><!DOCTYPE svg PUBLIC "-//W3C//DTD SVG 1.1//EN" "http://www.w3.org/Graphics/SVG/1.1/DTD/svg11.dtd"><svg t="1508749557701" class="icon" style="" viewBox="0 0 1024 1024" version="1.1" xmlns="http://www.w3.org/2000/svg" p-id="23165" xmlns:xlink="http://www.w3.org/1999/xlink" width="25" height="25"><defs><style type="text/css"></style></defs><path d="M860.3612 346.70239999999995c-26.0802-62.1468-62.208-114.38999999999999-107.3808-155.2842a30.2706 30.2706 0 0 0-33.418800000000005-4.9158 30.1824 30.1824 0 0 0-17.2314 28.9224c2.4012000000000002 46.4724-7.5924000000000005 90.30239999999999-17.5554 121.3218-8.622-23.740199999999998-20.970000000000002-53.964-37.4796-85.7718C597.6692 155.36240000000004 536.9228 94.68800000000005 466.73 70.62919999999997a29.431800000000003 29.431800000000003 0 0 0-27.1656 4.3182c-8.2134 6.1452-12.8484 15.993-12.398399999999999 26.3358 4.4963999999999995 104.193-72.423 226.3518-111.8088 281.70540000000005-10.5138-34.344-31.782600000000002-84.6756-72.5076-122.4252-9.3816-8.708400000000001-22.8168-10.4328-34.230599999999995-4.390200000000001-11.5596 6.1182-18.012600000000003 18.8586-16.056 31.708799999999997 11.88 77.8212-8.620199999999999 116.14139999999999-32.3568 160.5114C140.3288 485.5508 117.79999999999995 527.6654000000001 117.79999999999995 595.223c0 53.1 10.4922 103.04459999999999 31.1832 148.4496 19.8126 43.47 48.4632 81.77040000000001 85.158 113.83200000000001 71.9298 62.84880000000001 170.60760000000002 97.4628 277.85880000000003 97.4628 107.24940000000001 0 205.929-34.6122 277.85880000000003-97.4628 36.6948-32.061600000000006 65.34540000000001-70.36200000000001 85.158-113.83200000000001C895.7078 698.2675999999999 906.2 648.323 906.2 595.223c0-92.42999999999999-15.4224-176.0436-45.8388-248.5206z m-94.1904 483.6924c-65.367 57.1158-155.6352 88.5726-254.1708 88.5726-98.5374 0-188.8038-31.456799999999998-254.1726-88.5726C189.77300000000008 770.9300000000001 153.79999999999995 689.6095999999999 153.79999999999995 595.223c0-58.536 18.5292-93.1734 38.1474-129.8466 22.955399999999997-42.9138 46.64339999999999-87.1902 38.3616-166.2012 47.0916 52.9992 58.557599999999994 127.00259999999999 58.672799999999995 127.7802l5.864400000000001 40.3074 25.8552-31.473000000000006c5.9814-7.281 144.0738-177.1506 142.63739999999999-328.032 71.5266 28.5624 121.761 101.709 151.6644 159.15779999999998 34.5114 66.2958 50.4018 127.1412 50.5566 127.7406l11.775599999999999 45.8352 21.6612-42.075c1.7262-3.3516 40.366800000000005-79.52579999999999 39.6882-171.03420000000003C852.8264 338.85440000000006 870.2 504.72440000000006 870.2 595.223c0 94.3866-35.971199999999996 175.707-104.02919999999999 235.17179999999996z" fill="#e17125" p-id="23166"></path></svg>